<svg width="416" height="364" viewBox="0 0 416 364" fill="none" xmlns="http://www.w3.org/2000/svg">
<path d="M358.006 -2.53661C356.865 -4.17887 355.723 -5.82113 354.582 -7.46339C333.48 7.29772 312.378 22.057 291.274 36.8144C229.25 80.1855 167.216 123.541 105.17 166.88L104.929 167.074C71.0468 198.245 29.6729 226.277 12.3838 271.976C8.22895 285.819 4.50191 299.78 2.03987 314.08C0.849177 321.189 -0.0839375 328.487 0.00596654 335.844C0.0804645 339.518 0.367856 343.283 1.54904 347.01C2.58852 350.577 5.53427 354.94 10.1726 355.369C17.7296 355.949 21.3608 349.229 23.9337 344.539C26.5236 339.432 28.3159 334.077 29.9098 328.736C33.0808 318.029 35.1955 307.072 37.7954 296.427L34.6298 295.957C34.1451 307.806 34.3183 319.676 35.4538 331.52C36.0532 337.447 36.8736 343.349 38.4523 349.196C39.2611 352.107 40.2339 355.013 41.8218 357.78C43.3221 360.399 45.9861 363.522 49.9207 363.497C54.9867 363.723 58.4462 359.004 59.673 355.214C61.1114 351.191 61.6593 347.212 62.1011 343.193C62.9125 335.162 63.0025 327.211 63.2523 319.263C63.9017 303.546 63.7994 287.039 70.6565 273.171L68.1146 272.268C65.7346 286.394 66.58 300.618 68.5514 314.598C69.6127 321.571 71.079 328.544 73.4505 335.277C76.006 341.637 78.6219 349.777 86.9802 351.876C88.9259 352.269 91.4918 351.539 92.7797 349.827C94.109 348.182 94.6277 346.354 95.0263 344.598C95.7671 341.027 95.8358 337.529 95.8448 334.057C95.8071 327.092 95.2998 320.272 94.9485 313.396C94.328 299.778 93.5038 285.755 97.4191 272.89L97.3527 273.052C104.024 260.287 110.584 246.853 119.839 236.18C127.321 228.952 135.658 222.361 144.416 216.638C152.96 211.48 163.502 204.461 172.525 208.263C180.62 214.026 179.814 226.715 178.293 236.485C176.406 246.6 172.712 256.949 165.504 264.175C158.592 270.835 151.782 277.749 146.578 286.036C141.233 293.714 138.815 306.575 147.281 313.466C153.027 318.779 161.141 316.062 166.809 313.307C172.793 310.334 178.116 306.378 183.157 302.156C193.144 293.601 202.265 284.018 209.656 273.075C223.077 243.1 218.688 208.637 229.41 179.749C229.579 179.562 229.736 179.43 229.871 179.344C270.233 160.501 312.152 143.478 353.57 126.225C377.388 116.395 401.271 106.671 425.124 97.0952C424.345 95.2535 423.565 93.4118 422.785 91.5701C399.303 102.039 375.726 112.493 352.147 122.892C311.061 141.182 269.72 158.506 228.8 177.656C228.479 177.859 228.192 178.114 227.927 178.407C216.249 209.317 220.953 243.142 207.962 271.974C200.766 282.629 191.672 292.194 181.842 300.594C176.882 304.746 171.641 308.621 165.905 311.463C160.393 314.182 153.157 316.252 148.7 311.96C141.175 305.725 143.218 294.757 148.359 287.135C153.372 279.157 160.105 272.302 166.968 265.71C174.755 257.873 178.427 247.306 180.417 236.86C181.816 226.737 183.504 213.803 173.632 206.366C162.071 201.844 152.088 209.663 143.202 214.755C134.27 220.578 125.913 227.157 118.222 234.559C108.374 245.902 102.044 259.08 95.2369 271.997L95.1705 272.159C91.0416 285.718 91.9309 299.833 92.5088 313.522C92.848 320.416 93.338 327.236 93.3596 334.06C93.3482 337.447 93.2528 340.865 92.5765 344.065C91.9466 347.227 90.3171 350.05 87.3638 349.376C75.6063 344.478 73.5661 327.082 71.1478 314.21C69.2329 300.488 68.4686 286.305 70.7948 272.781L68.2529 271.879C60.8789 286.824 61.1371 303.38 60.3974 319.175C60.1267 327.133 60.0082 335.066 59.1937 342.885C58.2991 350.073 56.9973 360.463 49.9207 360.503C45.301 360.389 42.8392 353.601 41.3927 348.396C39.9056 342.827 39.11 337.04 38.5417 331.22C37.4612 319.578 37.3253 307.789 37.8432 296.105L34.6776 295.635C32.0015 306.445 29.873 317.274 26.7187 327.787C25.1423 333.014 23.3597 338.231 20.9219 342.988C18.5629 347.567 14.9577 352.583 10.6047 351.949C4.70563 351.198 3.63053 342.387 3.53124 335.794C3.46886 328.814 4.39642 321.663 5.5945 314.69C8.06676 300.644 11.8143 286.802 15.9958 273.073C32.5281 229.591 73.5695 201.42 107.912 170.283L107.671 170.478C169.916 127.426 232.173 84.3909 294.441 41.3713C315.628 26.7335 336.817 12.0975 358.006 -2.53661Z" fill="#FFCA24"/>
</svg>
