<svg width="369" height="399" viewBox="0 0 369 399" fill="none" xmlns="http://www.w3.org/2000/svg">
<path d="M-1.88351e-05 361.671C1.79549 362.552 3.59099 363.433 5.38649 364.314C16.1831 341.45 26.9876 318.291 38.2033 295.588C71.8506 229.865 104.869 160.723 160.129 110.781C161.751 109.461 163.368 108.208 164.98 107.026C179.593 96.2934 193.589 84.9296 206.536 72.3183C213.033 65.9871 219.149 59.3971 224.938 52.4484C227.848 48.9906 230.604 45.4104 233.539 42.0603C235 40.4456 236.563 38.761 238.289 38.1355C239.96 37.4922 241.839 38.4548 243.595 39.7351C251.009 45.1442 247.753 56.1719 244.485 64.1341C240.937 72.5496 236.145 80.4347 231.09 88.119C220.911 103.465 209.354 117.91 197.951 132.409L196.846 133.818L198.613 134.12C226.937 138.708 270.166 134.334 274.915 98.7981C276.893 81.2285 280.043 63.2467 274.901 45.4986C273.262 40.5285 272.28 35.0894 271.918 29.7811C271.668 24.7028 271.773 18.2272 275.711 16.0182C281.014 13.0616 285.941 19.2206 287.765 24.723C292.448 42.9098 295.351 62.167 298.648 80.9666L301.243 80.7972C302.163 60.792 305.911 40.1645 301.293 19.8661C300.094 13.6685 301.082 4.75522 307.163 3.22886C309.685 2.5794 312.176 2.6587 313.824 4.2007C315.518 5.7217 316.479 8.29636 317.109 10.8752C321.294 30.677 323.875 51.1018 326.614 71.313L327.255 76.2148L329.523 71.8195C337.571 55.3292 346.113 38.9897 349.733 20.3796C350.22 16.6977 351.263 12.8539 353.616 10.6891C355.819 8.46639 359.889 8.98381 361.958 11.064C365.846 16.6657 364.859 26.141 364.261 34.0408C356.637 76.4913 352.256 126.951 322.442 156.982C297.901 168.893 272.586 179.17 246.325 186.317C221.388 193.138 188.273 197.344 175.38 224.712C157.419 255.962 146.642 289.942 135.292 323.537C127.396 347.75 120.052 372.072 113.327 396.633C115.258 397.152 117.19 397.671 119.121 398.19C125.651 373.716 132.825 349.399 140.542 325.236C151.589 291.783 162.351 257.546 179.544 227.289C191.855 201.226 221.439 197.958 247.517 190.614C274.057 183.244 299.585 172.728 324.221 160.627C357.893 126.372 359.625 77.912 367.721 34.3685C368.077 26.0263 370.056 17.2841 364.428 8.75982C360.965 5.29778 354.994 4.76285 351.373 8.2238C347.927 11.5441 347.041 15.9512 346.471 19.9599C343.183 37.3595 334.67 54.1611 326.773 70.403L329.681 70.9096C326.857 50.6207 324.25 30.3727 319.921 10.1893C319.191 7.37109 318.234 4.35943 315.728 2.05548C313.144 -0.354687 309.275 -0.295297 306.473 0.471C302.211 1.43279 299.632 5.54878 298.776 9.18212C297.854 12.9281 297.806 16.6953 298.581 20.4735C303.121 40.087 299.537 60.3736 298.631 80.7005L301.226 80.5311C297.846 61.6128 295.023 42.7807 290.092 23.8773C288.946 20.7915 287.376 17.7453 284.773 15.3792C282.302 12.918 277.791 12.0198 274.623 13.8408C268.62 17.7162 269.449 24.616 269.523 29.9302C269.925 35.5117 270.9 40.9387 272.678 46.308C277.56 62.8385 274.645 81.1134 272.666 98.4962C268.581 131.76 226.978 136.557 198.971 132.015L199.632 133.726C211.006 119.226 222.585 104.728 232.823 89.2638C237.91 81.512 242.746 73.5582 246.381 64.9229C249.587 56.8564 253.688 44.9205 244.791 38.0888C242.957 36.7618 240.366 35.2226 237.624 36.2168C235.089 37.1947 233.576 39.0434 232.025 40.7126C228.997 44.174 226.283 47.7099 223.387 51.1536C217.641 58.0565 211.583 64.5894 205.132 70.8799C192.28 83.4073 178.354 94.7215 163.797 105.413C162.156 106.617 160.513 107.89 158.866 109.23C103.013 159.743 69.5276 228.453 34.4347 293.682C22.7486 316.194 11.3817 339.156 -1.88351e-05 361.671Z" fill="#FFCA24"/>
</svg>
