<svg width="46" height="46" viewBox="0 0 46 46" fill="none" xmlns="http://www.w3.org/2000/svg">
<path d="M0.751548 22.7578C0.751548 19.3118 0.749384 15.8657 0.751931 12.4197C0.756242 6.54847 4.7112 1.85457 10.4881 0.886754C11.1021 0.783878 11.735 0.758602 12.3591 0.757818C19.2796 0.749196 26.2004 0.747431 33.1209 0.753898C38.9468 0.759385 43.6405 4.74725 44.5928 10.5042C44.6894 11.0881 44.7196 11.6891 44.7202 12.2823C44.7286 19.2528 44.7337 26.2233 44.7231 33.1936C44.7147 38.744 40.99 43.347 35.5634 44.4988C34.789 44.6632 33.9805 44.7326 33.1875 44.7345C26.2199 44.7523 19.2524 44.7549 12.2848 44.7416C6.51437 44.7306 1.77834 40.6677 0.878517 34.9683C0.781323 34.3528 0.75899 33.7205 0.756835 33.0958C0.745665 29.6499 0.751548 26.2039 0.751548 22.7578ZM22.739 42.8649C26.2311 42.8649 29.7234 42.8753 33.2153 42.8626C38.6053 42.8426 42.8339 38.6117 42.8433 33.2167C42.8557 26.2452 42.8541 19.2738 42.8437 12.3023C42.8357 6.87767 38.6092 2.64407 33.191 2.63526C26.2225 2.62409 19.254 2.62389 12.2852 2.63526C6.86787 2.64407 2.63976 6.88139 2.63271 12.3029C2.62369 19.2743 2.62741 26.2458 2.63643 33.2173C2.63721 33.7783 2.67287 34.3487 2.77673 34.899C3.67773 39.6718 7.53843 42.8596 12.4032 42.8643C15.8487 42.8676 19.2939 42.8649 22.739 42.8649Z" fill="#610035" stroke="#610035" stroke-width="1.5"/>
<path d="M33.6013 22.7598C33.5747 28.803 28.6543 33.6801 22.624 33.6407C16.635 33.6017 11.7959 28.6978 11.8206 22.6927C11.8455 16.6444 16.7406 11.811 22.8082 11.8439C28.7601 11.8764 33.6276 16.7992 33.6013 22.7598ZM31.7227 22.7153C31.6964 17.7035 27.6423 13.6976 22.6228 13.7233C17.6773 13.7486 13.6733 17.8145 13.699 22.7848C13.7247 27.7678 17.79 31.794 22.7629 31.7617C27.7113 31.7296 31.7486 27.6531 31.7227 22.7153Z" fill="#610035" stroke="#610035" stroke-width="1.5"/>
<path d="M38.6577 9.94266C38.666 11.7012 37.231 13.1461 35.477 13.1457C33.7426 13.1453 32.318 11.7264 32.3045 9.98577C32.2906 8.21003 33.6954 6.77662 35.4572 6.76859C37.2247 6.76055 38.6495 8.17339 38.6577 9.94266ZM35.5023 8.6474C34.7712 8.63545 34.186 9.20861 34.1813 9.94148C34.1766 10.6689 34.7627 11.2673 35.4795 11.2669C36.1791 11.2665 36.7611 10.6947 36.7817 9.98734C36.8026 9.26054 36.2287 8.65936 35.5023 8.6474Z" fill="#610035" stroke="#610035" stroke-width="1.5"/>
</svg>
