<svg width="1440" height="13" viewBox="0 0 1440 13" fill="none" xmlns="http://www.w3.org/2000/svg">
<path d="M0 7.78967C2.67199 7.78967 5.38445 7.78967 11.4167 7.3728C16.1211 7.04769 24.1288 6.12221 100.179 5.69272C176.23 5.26322 320.071 5.26322 395.508 5.47165C470.944 5.68009 473.616 6.09695 493.919 6.3117C514.222 6.52644 552.075 6.52644 573.579 6.73488C599.099 6.98223 612.127 7.78967 627.181 7.9981C633.331 8.08325 636.445 8.62339 721.551 8.83814C806.656 9.05289 973.655 9.05289 1061.24 8.84446C1148.83 8.63603 1151.95 8.21916 1158.45 8.00441C1174.75 7.46649 1186.63 7.3728 1194.9 6.74119C1212.46 5.39931 1225.77 6.10958 1258.97 5.47797C1290.39 4.88035 1351.4 5.26322 1383.95 5.05479C1416.49 4.84636 1418.72 4.4295 1424.32 4.21475C1429.92 4 1438.82 4 1448 4" stroke="#FFCA24" stroke-width="8" stroke-linecap="round"/>
</svg>
