<svg width="1440" height="20" viewBox="0 0 1440 20" fill="none" xmlns="http://www.w3.org/2000/svg">
<path d="M1.39519 9.96137C2.27458 9.96137 3.15396 9.96137 102.978 9.96137C202.802 9.96137 401.544 9.96137 504.586 10.1581C607.627 10.3548 608.946 10.7483 612.044 10.951C627.135 11.9383 644.815 12.3459 662.416 13.3355C679.345 14.2873 692.448 13.9316 698.417 14.5278C707.412 15.426 715.099 15.1239 730.742 15.72C744.175 16.232 768.809 15.9227 782.812 15.726C804.836 15.4166 812.805 13.9436 819.247 13.3415C824.889 12.8141 828.807 11.9525 854.769 11.3563C879.405 10.7906 927.338 11.1536 953.127 10.9569C981.121 10.7434 984.699 9.96137 988.016 9.76464C990.023 9.64568 992.653 9.17447 1045.46 8.97178C1098.26 8.76909 1201.15 8.76909 1256.13 8.37564C1311.11 7.98219 1315.07 7.19529 1318.21 6.59319C1336.8 5.19227 1360.44 4.79882 1375.19 4.20269C1388.62 4 1414.12 4 1440.4 4" stroke="#FFCA24" stroke-width="8" stroke-linecap="round"/>
</svg>
