<svg width="318" height="150" viewBox="0 0 318 150" fill="none" xmlns="http://www.w3.org/2000/svg">
<path d="M231.662 40.2073C230.793 37.6911 229.386 35.7583 227.442 34.4087C225.498 33.0591 223.416 32.3843 221.197 32.3843C219.482 32.3843 218.155 32.796 217.217 33.6195C216.302 34.443 215.845 35.5181 215.845 36.8448C215.845 38.3545 216.359 39.5439 217.389 40.4132C218.441 41.2824 219.791 41.9801 221.437 42.5062C223.084 43.0094 224.823 43.5241 226.653 44.0502C228.506 44.5534 230.244 45.1939 231.868 45.9716C233.515 46.7265 234.853 47.7901 235.883 49.1626C236.935 50.5122 237.461 52.3192 237.461 54.5838C237.461 57.0542 236.889 59.1358 235.745 60.8285C234.602 62.5212 233.058 63.8021 231.113 64.6714C229.192 65.5406 227.065 65.9752 224.731 65.9752C222.49 65.9752 220.5 65.6092 218.761 64.8772C217.046 64.1452 215.65 63.3218 214.575 62.4068C214.232 62.1094 213.958 61.9607 213.752 61.9607C213.546 61.9607 213.363 62.1781 213.203 62.6127L212.379 64.9115C212.265 65.1631 212.116 65.3576 211.933 65.4948C211.75 65.6549 211.464 65.735 211.075 65.735H209.017C208.674 65.735 208.445 65.6664 208.331 65.5291C208.216 65.3919 208.159 65.1403 208.159 64.7743V53.9662C208.159 53.5544 208.216 53.28 208.331 53.1427C208.445 52.9826 208.696 52.9025 209.085 52.9025H211.624C212.036 52.9025 212.299 52.9826 212.414 53.1427C212.551 53.3028 212.677 53.5316 212.791 53.8289C213.363 55.6589 214.141 57.18 215.124 58.3924C216.131 59.5818 217.332 60.4739 218.727 61.0687C220.145 61.6634 221.769 61.9607 223.599 61.9607C225.864 61.9607 227.591 61.4804 228.78 60.5197C229.992 59.5589 230.599 58.2665 230.599 56.6425C230.599 55.1328 230.084 53.9662 229.055 53.1427C228.025 52.3192 226.699 51.6673 225.074 51.187C223.473 50.6837 221.769 50.1919 219.962 49.7116C218.155 49.2083 216.439 48.5564 214.815 47.7558C213.214 46.9552 211.899 45.8458 210.87 44.4276C209.84 43.0094 209.326 41.1108 209.326 38.7319C209.326 36.536 209.817 34.6832 210.801 33.1735C211.785 31.6409 213.111 30.4743 214.781 29.6737C216.474 28.8502 218.349 28.4385 220.408 28.4385C222.673 28.4385 224.606 28.8159 226.207 29.5708C227.831 30.3256 229.112 31.1605 230.05 32.0755C230.393 32.4186 230.61 32.6359 230.702 32.7274C230.816 32.796 230.965 32.5444 231.148 31.9726L232.04 29.4335C232.154 29.1133 232.28 28.9074 232.417 28.8159C232.577 28.7244 232.875 28.6787 233.309 28.6787H235.334C235.928 28.6787 236.226 28.9989 236.226 29.6394V40.3445C236.226 40.7105 236.157 40.9507 236.02 41.0651C235.883 41.1795 235.62 41.2366 235.231 41.2366H232.829C232.349 41.2366 232.063 41.1566 231.971 40.9965C231.88 40.8135 231.777 40.5504 231.662 40.2073Z" fill="#610035"/>
<path d="M203.524 58.392C202.998 59.7416 202.289 60.9882 201.396 62.1319C200.527 63.2756 199.406 64.1906 198.034 64.8768C196.684 65.5631 195.049 65.9062 193.127 65.9062C190.451 65.9062 188.518 65.2314 187.329 63.8818C186.139 62.5322 185.545 60.7938 185.545 58.6665V34.82C185.545 34.3854 185.464 34.0766 185.304 33.8936C185.167 33.7106 184.881 33.6191 184.447 33.6191H180.329C179.849 33.6191 179.529 33.5619 179.368 33.4476C179.231 33.3332 179.163 33.0473 179.163 32.5898V30.3252C179.163 29.8677 179.22 29.5933 179.334 29.5018C179.471 29.4103 179.757 29.3645 180.192 29.3645C181.45 29.3645 182.502 29.2844 183.349 29.1243C184.218 28.9413 184.95 28.5639 185.545 27.9921C186.162 27.4202 186.7 26.5281 187.157 25.3158C187.638 24.1034 188.118 22.4679 188.598 20.4092C188.69 19.9975 188.781 19.723 188.873 19.5858C188.987 19.4485 189.307 19.3799 189.833 19.3799H191.926C192.544 19.3799 192.853 19.7116 192.853 20.3749V28.2665C192.853 28.7469 192.956 29.0557 193.162 29.193C193.39 29.3073 193.722 29.3645 194.157 29.3645H201.671C202.106 29.3645 202.391 29.4331 202.529 29.5704C202.689 29.7076 202.769 30.005 202.769 30.4625V32.7613C202.769 33.1502 202.677 33.3904 202.494 33.4819C202.334 33.5734 202.048 33.6191 201.637 33.6191H194.225C193.768 33.6191 193.425 33.6878 193.196 33.825C192.967 33.9394 192.853 34.2482 192.853 34.7514V57.2597C192.853 58.6093 193.116 59.5929 193.642 60.2105C194.191 60.8052 194.912 61.1026 195.804 61.1026C196.741 61.1026 197.588 60.7823 198.343 60.1419C199.098 59.5014 199.772 58.5521 200.367 57.294C200.55 56.9509 200.699 56.745 200.813 56.6764C200.95 56.6078 201.213 56.6421 201.602 56.7793L202.94 57.3626C203.238 57.477 203.444 57.6028 203.558 57.7401C203.672 57.8773 203.661 58.0946 203.524 58.392Z" fill="#610035"/>
<path d="M139.695 15.7776H135.132C134.743 15.7776 134.503 15.7433 134.411 15.6746C134.343 15.5831 134.308 15.343 134.308 14.9541V12.3121C134.308 11.969 134.366 11.7517 134.48 11.6602C134.594 11.5687 134.835 11.5229 135.201 11.5229H146.729C147.118 11.5229 147.358 11.603 147.45 11.7631C147.564 11.9004 147.621 12.1749 147.621 12.5866V34.4087C147.621 35.1635 147.644 35.5867 147.69 35.6782C147.758 35.7697 147.861 35.6782 147.999 35.4037C148.136 35.1063 148.307 34.7975 148.513 34.4773C149.611 32.7846 151.167 31.3778 153.18 30.257C155.193 29.1361 157.469 28.5757 160.008 28.5757C163.736 28.5757 166.55 29.5136 168.448 31.3893C170.347 33.265 171.296 36.0442 171.296 39.7269V59.7991C171.296 60.2337 171.353 60.5082 171.468 60.6226C171.605 60.737 171.902 60.7942 172.36 60.7942H176.717C177.038 60.7942 177.243 60.8399 177.335 60.9314C177.426 61.0229 177.472 61.2288 177.472 61.549V64.3282C177.472 64.6485 177.415 64.8544 177.301 64.9459C177.209 65.0145 176.992 65.0488 176.649 65.0488H159.013C158.692 65.0488 158.487 64.9916 158.395 64.8772C158.304 64.74 158.258 64.5112 158.258 64.191V61.652C158.258 61.3775 158.281 61.1716 158.326 61.0344C158.395 60.8742 158.555 60.7942 158.807 60.7942H163.096C163.507 60.7942 163.759 60.737 163.851 60.6226C163.942 60.5082 163.988 60.2452 163.988 59.8335V40.5161C163.988 38.0914 163.496 36.2501 162.512 34.992C161.552 33.711 160.031 33.0705 157.949 33.0705C155.89 33.0705 154.083 33.631 152.528 34.7518C150.995 35.8498 149.794 37.348 148.925 39.2466C148.056 41.1452 147.621 43.2725 147.621 45.6285V59.9021C147.621 60.2909 147.69 60.5426 147.827 60.6569C147.987 60.7484 148.25 60.7942 148.616 60.7942H152.356C152.791 60.7942 153.077 60.8628 153.214 61C153.351 61.1373 153.42 61.4232 153.42 61.8578V64.0538C153.42 64.374 153.374 64.6256 153.283 64.8086C153.191 64.9687 152.974 65.0488 152.631 65.0488H134.995C134.674 65.0488 134.48 65.0259 134.411 64.9802C134.343 64.9115 134.308 64.7057 134.308 64.3626V61.652C134.308 61.286 134.331 61.0572 134.377 60.9657C134.423 60.8514 134.64 60.7942 135.029 60.7942H139.489C139.901 60.7942 140.164 60.7484 140.279 60.6569C140.416 60.5426 140.484 60.2909 140.484 59.9021V16.7383C140.484 16.3952 140.439 16.155 140.347 16.0177C140.256 15.8576 140.038 15.7776 139.695 15.7776Z" fill="#610035"/>
<path d="M102.877 41.2709C102.877 42.895 103.071 44.439 103.46 45.903C103.872 47.344 104.558 48.5106 105.519 49.4027C106.48 50.2948 107.795 50.7409 109.465 50.7409C111.112 50.7409 112.416 50.2948 113.376 49.4027C114.337 48.5106 115.012 47.344 115.401 45.903C115.812 44.439 116.018 42.895 116.018 41.2709C116.018 39.6468 115.812 38.1143 115.401 36.6732C115.012 35.2321 114.337 34.0655 113.376 33.1734C112.416 32.2584 111.112 31.801 109.465 31.801C107.795 31.801 106.48 32.2584 105.519 33.1734C104.558 34.0655 103.872 35.2321 103.46 36.6732C103.071 38.1143 102.877 39.6468 102.877 41.2709ZM95.3285 41.2709C95.3285 38.7319 95.9118 36.5131 97.0783 34.6145C98.2678 32.6931 99.9262 31.2062 102.053 30.154C104.181 29.1018 106.651 28.5757 109.465 28.5757C111.523 28.5757 113.399 28.873 115.092 29.4678C116.785 30.0396 118.237 30.8517 119.449 31.9039C119.701 32.1098 119.861 32.2127 119.93 32.2127C119.998 32.1898 120.136 32.064 120.341 31.8353C121.394 30.6916 122.526 29.8681 123.738 29.3648C124.951 28.8387 126.026 28.5757 126.964 28.5757C128.565 28.5757 129.903 28.8502 130.978 29.3992C132.053 29.9481 132.865 30.6916 133.414 31.6294C133.963 32.5672 134.238 33.6538 134.238 34.889C134.238 36.2157 133.837 37.245 133.037 37.977C132.259 38.709 131.31 39.075 130.189 39.075C129.091 39.075 128.21 38.7662 127.547 38.1486C126.884 37.5081 126.552 36.7532 126.552 35.884C126.552 35.1063 126.666 34.5344 126.895 34.1684C127.124 33.8025 127.352 33.5051 127.581 33.2764C127.81 33.0247 127.924 32.7274 127.924 32.3843C127.924 31.7438 127.535 31.4235 126.758 31.4235C126.003 31.4235 125.225 31.6294 124.425 32.0411C123.624 32.43 122.869 33.1162 122.16 34.0998C122.023 34.3057 121.931 34.4658 121.886 34.5802C121.84 34.6946 121.886 34.8776 122.023 35.1292C123.006 36.982 123.498 39.0292 123.498 41.2709C123.498 43.8328 122.903 46.0631 121.714 47.9616C120.547 49.8602 118.912 51.3356 116.807 52.3878C114.703 53.44 112.255 53.9661 109.465 53.9661C108.962 53.9661 108.47 53.9547 107.989 53.9318C107.532 53.8861 107.063 53.8175 106.583 53.726C106.171 53.6573 105.839 53.6459 105.588 53.6917C105.359 53.7145 105.084 53.806 104.764 53.9661C103.826 54.4236 103.003 54.9612 102.294 55.5788C101.607 56.1735 101.264 56.7797 101.264 57.3973C101.264 58.541 101.836 59.2387 102.98 59.4903C104.146 59.719 105.622 59.8334 107.406 59.8334C107.841 59.8334 108.413 59.8334 109.122 59.8334C109.831 59.8105 110.597 59.7991 111.421 59.7991C112.244 59.7991 113.022 59.7991 113.754 59.7991C114.509 59.7762 115.126 59.7648 115.607 59.7648C117.276 59.7648 118.878 59.902 120.41 60.1765C121.943 60.451 123.304 60.9657 124.493 61.7205C125.706 62.4525 126.666 63.5276 127.375 64.9458C128.084 66.3411 128.439 68.1825 128.439 70.4699C128.439 73.1234 127.673 75.365 126.14 77.195C124.63 79.0478 122.492 80.466 119.724 81.4496C116.979 82.4332 113.742 82.925 110.014 82.925C104.936 82.925 100.875 82.2159 97.8332 80.7977C94.8138 79.3795 93.3041 77.2179 93.3041 74.3128C93.3041 72.2541 93.9103 70.4814 95.1226 68.9946C96.3349 67.5077 97.6845 66.3754 99.1713 65.5977C99.6288 65.369 99.8233 65.2203 99.7546 65.1517C99.7089 65.1059 99.4687 64.9801 99.0341 64.7742C98.0047 64.2939 97.1927 63.6191 96.598 62.7499C96.0032 61.8806 95.7059 60.7255 95.7059 59.2844C95.7059 57.912 96.1748 56.6767 97.1126 55.5788C98.0505 54.4808 99.3315 53.5658 100.956 52.8339C101.55 52.5823 101.813 52.4221 101.745 52.3535C101.676 52.262 101.402 52.079 100.921 51.8045C99.137 50.7294 97.7531 49.2884 96.7695 47.4813C95.8088 45.6513 95.3285 43.5812 95.3285 41.2709ZM122.572 72.3228C122.572 70.5843 122.023 69.1204 120.925 67.9309C119.827 66.7414 118.157 66.1467 115.915 66.1467C115.435 66.1467 114.68 66.1467 113.651 66.1467C112.621 66.1467 111.592 66.1467 110.563 66.1467C109.533 66.1467 108.767 66.1467 108.264 66.1467C107.486 66.1467 106.708 66.1353 105.931 66.1124C105.176 66.1124 104.421 66.0781 103.666 66.0095C103.392 65.9637 103.186 65.9523 103.049 65.9751C102.934 66.0209 102.797 66.1353 102.637 66.3183C101.722 67.279 101.161 68.2855 100.956 69.3377C100.773 70.4128 100.681 71.3163 100.681 72.0483C100.681 74.29 101.539 76.0398 103.254 77.2979C104.993 78.556 107.612 79.185 111.112 79.185C113.033 79.185 114.863 78.9334 116.602 78.4302C118.363 77.9498 119.793 77.195 120.89 76.1656C122.011 75.1592 122.572 73.8782 122.572 72.3228Z" fill="#610035"/>
<path d="M76.447 17.1157C76.447 15.8118 76.9045 14.7253 77.8194 13.8561C78.7573 12.9869 79.8667 12.5522 81.1476 12.5522C82.4286 12.5522 83.5266 12.9869 84.4415 13.8561C85.3565 14.7253 85.814 15.8118 85.814 17.1157C85.814 18.3966 85.3565 19.4717 84.4415 20.3409C83.5266 21.2102 82.4286 21.6448 81.1476 21.6448C79.8667 21.6448 78.7573 21.2102 77.8194 20.3409C76.9045 19.4717 76.447 18.3966 76.447 17.1157ZM76.996 33.6195H72.3639C72.0437 33.6195 71.8378 33.5737 71.7463 33.4822C71.6777 33.3679 71.6434 33.1505 71.6434 32.8303V30.2569C71.6434 29.6622 71.9293 29.3648 72.5012 29.3648H84.4758C84.7503 29.3648 84.9219 29.4106 84.9905 29.5021C85.082 29.5936 85.1278 29.788 85.1278 30.0854V59.9706C85.1278 60.268 85.1735 60.4853 85.265 60.6226C85.3794 60.7369 85.5738 60.7941 85.8483 60.7941H90.4804C90.8006 60.7941 91.0179 60.8284 91.1323 60.8971C91.2466 60.9657 91.3038 61.1715 91.3038 61.5147V64.191C91.3038 64.5341 91.2695 64.7628 91.2009 64.8772C91.1323 64.9916 90.9264 65.0487 90.5833 65.0487H72.6727C72.2839 65.0487 72.0094 65.003 71.8492 64.9115C71.712 64.82 71.6434 64.5913 71.6434 64.2253V61.8235C71.6434 61.366 71.7234 61.0801 71.8836 60.9657C72.0437 60.8513 72.3296 60.7941 72.7413 60.7941H76.996C77.3848 60.7941 77.6136 60.7369 77.6822 60.6226C77.7737 60.4853 77.8194 60.2337 77.8194 59.8677V34.4429C77.8194 33.894 77.5449 33.6195 76.996 33.6195Z" fill="#610035"/>
<path d="M69.389 58.4261C68.6342 60.5763 67.4218 62.349 65.752 63.7444C64.1051 65.1397 61.8176 65.8374 58.8897 65.8374C56.5566 65.8374 54.7838 65.4028 53.5715 64.5335C52.382 63.6643 51.5471 62.5092 51.0667 61.0681C50.6092 59.627 50.3233 58.0487 50.2089 56.3331C50.0946 54.6175 49.9688 52.9134 49.8315 51.2207C49.6943 49.5051 49.3626 47.9268 48.8365 46.4857C48.3332 45.0446 47.4526 43.8895 46.1945 43.0203C44.9593 42.151 43.1408 41.7164 40.739 41.7164H32.8474C32.0925 41.7164 31.6465 41.8308 31.5092 42.0595C31.372 42.2654 31.3033 42.7343 31.3033 43.4663V59.3182C31.3033 59.8443 31.3834 60.176 31.5435 60.3132C31.7265 60.4505 32.0925 60.5191 32.6415 60.5191H37.7196C38.1999 60.5191 38.5087 60.5992 38.646 60.7593C38.7832 60.9194 38.8518 61.2625 38.8518 61.7886V63.8473C38.8518 64.3505 38.7718 64.6822 38.6117 64.8423C38.4516 64.9796 38.1084 65.0482 37.5823 65.0482H16.9955C16.538 65.0482 16.2292 64.9796 16.0691 64.8423C15.9318 64.6822 15.8632 64.3734 15.8632 63.9159V61.7543C15.8632 61.2053 15.9432 60.8622 16.1034 60.725C16.2864 60.5877 16.6295 60.5191 17.1327 60.5191H21.7304C22.4624 60.5191 22.9199 60.439 23.1029 60.2789C23.3088 60.1188 23.4117 59.6842 23.4117 58.9751V19.7914C23.4117 19.0366 23.3088 18.5677 23.1029 18.3847C22.9199 18.2017 22.4624 18.1102 21.7304 18.1102H17.167C16.5494 18.1102 16.172 18.0072 16.0347 17.8014C15.9204 17.5955 15.8632 17.1723 15.8632 16.5318V14.782C15.8632 14.3016 15.9204 13.9814 16.0347 13.8212C16.172 13.6611 16.4694 13.5811 16.9268 13.5811H43.5525C47.8529 13.5811 51.3183 14.1872 53.9489 15.3996C56.5794 16.6119 58.4894 18.2588 59.6789 20.3404C60.8912 22.3991 61.4974 24.7094 61.4974 27.2713C61.4974 30.062 60.8455 32.4638 59.5416 34.4767C58.2607 36.4668 56.019 37.9651 52.8166 38.9715C52.1532 39.2003 51.7987 39.4404 51.753 39.6921C51.7072 39.9208 52.0732 40.241 52.8509 40.6528C54.4979 41.522 55.6988 42.6085 56.4536 43.9124C57.2313 45.2162 57.746 46.6115 57.9976 48.0984C58.2492 49.5623 58.3751 51.0148 58.3751 52.4559C58.3979 53.897 58.4551 55.2123 58.5466 56.4017C58.6381 57.5912 58.9126 58.5405 59.3701 59.2496C59.8276 59.9587 60.651 60.3132 61.8405 60.3132C62.4581 60.3132 63.0872 60.0387 63.7276 59.4898C64.3681 58.9408 64.9285 58.1173 65.4089 57.0193C65.569 56.6991 65.7177 56.4704 65.855 56.3331C65.9922 56.173 66.2553 56.173 66.6441 56.3331L68.5999 57.1909C68.9887 57.3739 69.2518 57.5454 69.389 57.7056C69.5263 57.8428 69.5263 58.083 69.389 58.4261ZM32.916 36.9128H43.5525C45.2452 36.9128 46.8235 36.5697 48.2875 35.8835C49.7743 35.1973 50.9752 34.1679 51.8902 32.7955C52.8052 31.4001 53.2627 29.6502 53.2627 27.5458C53.2627 25.4414 52.8052 23.6915 51.8902 22.2962C50.9752 20.9008 49.7743 19.86 48.2875 19.1738C46.8235 18.4647 45.2452 18.1102 43.5525 18.1102H32.8817C32.1039 18.1102 31.6465 18.1902 31.5092 18.3503C31.372 18.4876 31.3033 18.9565 31.3033 19.7571V35.2659C31.3033 35.9979 31.3834 36.4553 31.5435 36.6383C31.7265 36.8213 32.184 36.9128 32.916 36.9128Z" fill="#610035"/>
<path d="M312.201 101.682C311.332 99.1657 309.925 97.2329 307.981 95.8833C306.037 94.5337 303.955 93.8589 301.736 93.8589C300.021 93.8589 298.694 94.2706 297.756 95.0941C296.841 95.9176 296.384 96.9927 296.384 98.3194C296.384 99.8291 296.898 101.019 297.928 101.888C298.98 102.757 300.33 103.455 301.977 103.981C303.623 104.484 305.362 104.999 307.192 105.525C309.045 106.028 310.783 106.669 312.407 107.446C314.054 108.201 315.392 109.265 316.422 110.637C317.474 111.987 318 113.794 318 116.058C318 118.529 317.428 120.61 316.284 122.303C315.141 123.996 313.597 125.277 311.652 126.146C309.731 127.015 307.604 127.45 305.27 127.45C303.029 127.45 301.039 127.084 299.3 126.352C297.585 125.62 296.189 124.796 295.114 123.881C294.771 123.584 294.497 123.435 294.291 123.435C294.085 123.435 293.902 123.653 293.742 124.087L292.918 126.386C292.804 126.638 292.655 126.832 292.472 126.969C292.289 127.13 292.003 127.21 291.614 127.21H289.556C289.213 127.21 288.984 127.141 288.87 127.004C288.755 126.866 288.698 126.615 288.698 126.249V115.441C288.698 115.029 288.755 114.755 288.87 114.617C288.984 114.457 289.236 114.377 289.624 114.377H292.163C292.575 114.377 292.838 114.457 292.953 114.617C293.09 114.777 293.216 115.006 293.33 115.304C293.902 117.133 294.68 118.655 295.663 119.867C296.67 121.056 297.871 121.949 299.266 122.543C300.684 123.138 302.308 123.435 304.138 123.435C306.403 123.435 308.13 122.955 309.319 121.994C310.532 121.034 311.138 119.741 311.138 118.117C311.138 116.607 310.623 115.441 309.594 114.617C308.564 113.794 307.238 113.142 305.614 112.662C304.012 112.158 302.308 111.667 300.501 111.186C298.694 110.683 296.978 110.031 295.354 109.23C293.753 108.43 292.438 107.32 291.409 105.902C290.379 104.484 289.865 102.585 289.865 100.207C289.865 98.0106 290.356 96.1578 291.34 94.6481C292.324 93.1155 293.65 91.9489 295.32 91.1483C297.013 90.3248 298.889 89.9131 300.947 89.9131C303.212 89.9131 305.145 90.2905 306.746 91.0454C308.37 91.8002 309.651 92.6351 310.589 93.5501C310.932 93.8932 311.149 94.1105 311.241 94.202C311.355 94.2706 311.504 94.019 311.687 93.4472L312.579 90.9081C312.693 90.5879 312.819 90.382 312.956 90.2905C313.116 90.199 313.414 90.1533 313.848 90.1533H315.873C316.467 90.1533 316.765 90.4735 316.765 91.114V101.819C316.765 102.185 316.696 102.425 316.559 102.54C316.422 102.654 316.159 102.711 315.77 102.711H313.368C312.888 102.711 312.602 102.631 312.51 102.471C312.419 102.288 312.316 102.025 312.201 101.682Z" fill="#610035"/>
<path d="M284.063 119.867C283.537 121.216 282.828 122.463 281.935 123.607C281.066 124.75 279.945 125.665 278.573 126.351C277.223 127.038 275.588 127.381 273.666 127.381C270.99 127.381 269.057 126.706 267.868 125.356C266.678 124.007 266.084 122.268 266.084 120.141V96.2946C266.084 95.86 266.004 95.5512 265.843 95.3682C265.706 95.1852 265.42 95.0937 264.986 95.0937H260.868C260.388 95.0937 260.068 95.0366 259.908 94.9222C259.77 94.8078 259.702 94.5219 259.702 94.0644V91.7998C259.702 91.3424 259.759 91.0679 259.873 90.9764C260.01 90.8849 260.296 90.8391 260.731 90.8391C261.989 90.8391 263.041 90.7591 263.888 90.5989C264.757 90.4159 265.489 90.0385 266.084 89.4667C266.701 88.8948 267.239 88.0027 267.696 86.7904C268.177 85.578 268.657 83.9425 269.137 81.8838C269.229 81.4721 269.32 81.1976 269.412 81.0604C269.526 80.9231 269.846 80.8545 270.373 80.8545H272.466C273.083 80.8545 273.392 81.1862 273.392 81.8495V89.7412C273.392 90.2215 273.495 90.5303 273.701 90.6676C273.929 90.7819 274.261 90.8391 274.696 90.8391H282.21C282.645 90.8391 282.931 90.9077 283.068 91.045C283.228 91.1822 283.308 91.4796 283.308 91.9371V94.236C283.308 94.6248 283.216 94.865 283.033 94.9565C282.873 95.048 282.587 95.0937 282.176 95.0937H274.764C274.307 95.0937 273.964 95.1624 273.735 95.2996C273.506 95.414 273.392 95.7228 273.392 96.226V118.734C273.392 120.084 273.655 121.067 274.181 121.685C274.73 122.28 275.451 122.577 276.343 122.577C277.281 122.577 278.127 122.257 278.882 121.616C279.637 120.976 280.311 120.027 280.906 118.769C281.089 118.426 281.238 118.22 281.352 118.151C281.489 118.082 281.752 118.117 282.141 118.254L283.479 118.837C283.777 118.952 283.983 119.077 284.097 119.215C284.211 119.352 284.2 119.569 284.063 119.867Z" fill="#610035"/>
<path d="M219.951 95.0941H215.594C215.228 95.0941 214.988 95.0254 214.873 94.8882C214.759 94.7281 214.702 94.465 214.702 94.099V91.7659C214.702 91.4228 214.77 91.1826 214.907 91.0453C215.045 90.9081 215.273 90.8395 215.594 90.8395H226.848C227.26 90.8395 227.557 90.9653 227.74 91.2169C227.946 91.4456 228.049 91.743 228.049 92.109V95.746C228.049 96.6152 228.106 97.0384 228.22 97.0155C228.358 96.9926 228.552 96.7868 228.804 96.3979C229.924 94.6137 231.423 93.1154 233.298 91.9031C235.197 90.6679 237.633 90.0503 240.607 90.0503C243.466 90.0503 245.719 90.4735 247.366 91.3198C249.013 92.1662 250.18 93.4128 250.866 95.0598C251.552 96.7067 251.895 98.754 251.895 101.202V120.725C251.895 121.342 251.952 121.754 252.067 121.96C252.204 122.166 252.581 122.269 253.199 122.269H257.145C257.534 122.269 257.785 122.349 257.9 122.509C258.014 122.646 258.071 122.921 258.071 123.332V125.631C258.071 126.066 257.98 126.329 257.797 126.42C257.637 126.489 257.328 126.523 256.87 126.523H239.612C239.223 126.523 238.983 126.443 238.891 126.283C238.823 126.1 238.788 125.803 238.788 125.391V123.332C238.788 122.944 238.834 122.669 238.925 122.509C239.04 122.349 239.291 122.269 239.68 122.269H243.18C243.752 122.269 244.118 122.2 244.278 122.063C244.461 121.903 244.553 121.525 244.553 120.931V101.991C244.553 99.566 244.072 97.7246 243.111 96.4665C242.151 95.1856 240.63 94.5451 238.548 94.5451C236.489 94.5451 234.682 95.1055 233.127 96.2264C231.571 97.3243 230.359 98.8226 229.49 100.721C228.643 102.62 228.22 104.747 228.22 107.103V120.862C228.22 121.388 228.323 121.754 228.529 121.96C228.735 122.166 229.101 122.269 229.627 122.269H232.784C233.264 122.269 233.584 122.337 233.744 122.475C233.927 122.612 234.019 122.932 234.019 123.435V125.46C234.019 125.894 233.939 126.18 233.779 126.317C233.642 126.455 233.367 126.523 232.955 126.523H215.697C215.262 126.523 214.988 126.443 214.873 126.283C214.759 126.123 214.702 125.826 214.702 125.391V123.401C214.702 122.921 214.793 122.612 214.976 122.475C215.182 122.337 215.514 122.269 215.971 122.269H219.642C220.146 122.269 220.477 122.223 220.637 122.131C220.798 122.017 220.878 121.72 220.878 121.239V95.8146C220.878 95.4944 220.809 95.2999 220.672 95.2313C220.535 95.1398 220.294 95.0941 219.951 95.0941Z" fill="#610035"/>
<path d="M175.093 118.082C175.093 115.864 175.779 113.851 177.151 112.044C178.547 110.214 180.583 108.761 183.259 107.686C185.958 106.588 189.275 106.039 193.209 106.039H196.434C196.823 106.039 197.063 105.993 197.155 105.902C197.269 105.81 197.327 105.559 197.327 105.147V101.338C197.327 99.8515 197.144 98.5363 196.778 97.3925C196.412 96.226 195.748 95.3224 194.787 94.6819C193.85 94.0186 192.523 93.6869 190.807 93.6869C189.687 93.6869 188.623 93.8013 187.616 94.03C186.61 94.2588 185.786 94.5561 185.146 94.9221C184.528 95.2881 184.22 95.677 184.22 96.0887C184.22 96.4776 184.368 96.7749 184.666 96.9808C184.986 97.1638 185.295 97.4383 185.592 97.8043C185.889 98.1703 186.038 98.7993 186.038 99.6914C186.038 100.927 185.638 101.933 184.837 102.711C184.059 103.489 183.042 103.877 181.783 103.877C180.594 103.877 179.542 103.569 178.627 102.951C177.712 102.333 177.254 101.247 177.254 99.6914C177.254 98.1588 177.7 96.7978 178.592 95.6084C179.485 94.4189 180.674 93.4239 182.161 92.6233C183.648 91.7998 185.295 91.1822 187.102 90.7704C188.932 90.3587 190.762 90.1528 192.592 90.1528C195.794 90.1528 198.264 90.6561 200.003 91.6625C201.764 92.669 202.976 94.0186 203.64 95.7113C204.326 97.404 204.669 99.2454 204.669 101.235V121.033C204.669 121.719 204.841 122.223 205.184 122.543C205.55 122.863 205.973 123.023 206.453 123.023C206.934 123.023 207.437 122.886 207.963 122.611C208.489 122.337 209.038 121.742 209.61 120.827C209.839 120.438 210.102 120.358 210.399 120.587L212.012 121.582C212.309 121.765 212.378 122.04 212.218 122.406C211.692 123.412 211.028 124.281 210.228 125.013C209.427 125.722 208.546 126.26 207.586 126.626C206.625 127.015 205.596 127.209 204.498 127.209H204.463C202.771 127.209 201.478 126.935 200.586 126.386C199.694 125.837 199.065 125.196 198.699 124.464C198.333 123.732 198.07 123.08 197.91 122.509C197.75 122.051 197.601 121.822 197.464 121.822C197.327 121.822 197.086 122.028 196.743 122.44C196.331 122.989 195.725 123.641 194.925 124.396C194.147 125.15 193.038 125.814 191.597 126.386C190.178 126.935 188.291 127.209 185.935 127.209C182.778 127.209 180.182 126.42 178.146 124.842C176.111 123.24 175.093 120.987 175.093 118.082ZM183.396 117.019C183.396 119.1 184.025 120.599 185.283 121.513C186.541 122.406 187.982 122.852 189.606 122.852C191.825 122.852 193.667 122.028 195.131 120.381C196.595 118.734 197.327 116.413 197.327 113.416V109.71C197.327 109.253 197.098 109.024 196.64 109.024H193.518C191.093 109.024 189.138 109.356 187.651 110.019C186.164 110.66 185.077 111.575 184.391 112.764C183.728 113.954 183.396 115.372 183.396 117.019Z" fill="#610035"/>
<path d="M146.325 96.4322C146.325 95.8832 146.257 95.5287 146.12 95.3686C145.982 95.1856 145.651 95.0941 145.125 95.0941H141.213C140.71 95.0941 140.401 95.014 140.287 94.8539C140.195 94.6709 140.149 94.3278 140.149 93.8246V92.0747C140.149 91.5714 140.218 91.2398 140.355 91.0796C140.492 90.9195 140.801 90.8395 141.282 90.8395H152.261C152.65 90.8395 152.948 90.8966 153.153 91.011C153.382 91.1025 153.497 91.377 153.497 91.8345V95.2999C153.497 95.8947 153.542 96.2264 153.634 96.295C153.725 96.3636 153.908 96.1234 154.183 95.5744C155.052 93.9961 156.23 92.6808 157.717 91.6286C159.227 90.5764 161.159 90.0503 163.515 90.0503C165.62 90.0503 167.473 90.6565 169.074 91.8688C170.675 93.0811 171.476 94.751 171.476 96.8783C171.476 97.8847 171.27 98.8226 170.858 99.6918C170.446 100.561 169.874 101.259 169.143 101.785C168.433 102.311 167.599 102.574 166.638 102.574C165.311 102.574 164.202 102.231 163.31 101.545C162.417 100.836 161.971 99.9091 161.971 98.7654C161.971 97.8962 162.109 97.2328 162.383 96.7753C162.658 96.295 162.932 95.9175 163.207 95.6431C163.481 95.3686 163.618 95.0941 163.618 94.8196C163.618 94.4993 163.481 94.2592 163.207 94.099C162.955 93.9389 162.452 93.8589 161.697 93.8589C160.21 93.8589 158.849 94.4879 157.614 95.746C156.402 97.0041 155.441 98.6625 154.732 100.721C154.023 102.757 153.668 104.953 153.668 107.309V120.896C153.668 121.422 153.725 121.788 153.84 121.994C153.954 122.177 154.274 122.269 154.8 122.269H158.952C159.387 122.269 159.638 122.36 159.707 122.543C159.798 122.703 159.844 123.001 159.844 123.435V125.425C159.844 125.837 159.787 126.123 159.673 126.283C159.581 126.443 159.329 126.523 158.918 126.523H141.213C140.87 126.523 140.607 126.478 140.424 126.386C140.241 126.295 140.149 126.089 140.149 125.768V123.229C140.149 122.841 140.229 122.589 140.39 122.475C140.55 122.337 140.813 122.269 141.179 122.269H144.919C145.445 122.269 145.811 122.2 146.017 122.063C146.222 121.903 146.325 121.571 146.325 121.068V96.4322Z" fill="#610035"/>
<path d="M105.044 102.746C105.044 104.37 105.238 105.914 105.627 107.378C106.039 108.819 106.725 109.985 107.686 110.877C108.647 111.769 109.962 112.215 111.632 112.215C113.279 112.215 114.583 111.769 115.543 110.877C116.504 109.985 117.179 108.819 117.568 107.378C117.979 105.914 118.185 104.37 118.185 102.746C118.185 101.121 117.979 99.5889 117.568 98.1478C117.179 96.7067 116.504 95.5401 115.543 94.648C114.583 93.7331 113.279 93.2756 111.632 93.2756C109.962 93.2756 108.647 93.7331 107.686 94.648C106.725 95.5401 106.039 96.7067 105.627 98.1478C105.238 99.5889 105.044 101.121 105.044 102.746ZM97.4954 102.746C97.4954 100.206 98.0787 97.9877 99.2453 96.0891C100.435 94.1677 102.093 92.6808 104.22 91.6286C106.348 90.5764 108.818 90.0503 111.632 90.0503C113.69 90.0503 115.566 90.3477 117.259 90.9424C118.952 91.5142 120.404 92.3263 121.616 93.3785C121.868 93.5844 122.028 93.6873 122.097 93.6873C122.165 93.6644 122.303 93.5386 122.508 93.3099C123.561 92.1662 124.693 91.3427 125.905 90.8395C127.118 90.3133 128.193 90.0503 129.131 90.0503C130.732 90.0503 132.07 90.3248 133.145 90.8738C134.22 91.4227 135.032 92.1662 135.581 93.104C136.13 94.0419 136.405 95.1284 136.405 96.3636C136.405 97.6903 136.004 98.7196 135.204 99.4516C134.426 100.184 133.477 100.55 132.356 100.55C131.258 100.55 130.377 100.241 129.714 99.6232C129.051 98.9827 128.719 98.2279 128.719 97.3586C128.719 96.5809 128.833 96.009 129.062 95.6431C129.291 95.2771 129.519 94.9797 129.748 94.751C129.977 94.4993 130.091 94.202 130.091 93.8589C130.091 93.2184 129.702 92.8981 128.925 92.8981C128.17 92.8981 127.392 93.104 126.592 93.5157C125.791 93.9046 125.036 94.5908 124.327 95.5744C124.19 95.7803 124.098 95.9404 124.052 96.0548C124.007 96.1692 124.052 96.3522 124.19 96.6038C125.173 98.4566 125.665 100.504 125.665 102.746C125.665 105.307 125.07 107.538 123.881 109.436C122.714 111.335 121.079 112.81 118.974 113.862C116.87 114.915 114.422 115.441 111.632 115.441C111.129 115.441 110.637 115.429 110.156 115.406C109.699 115.361 109.23 115.292 108.75 115.201C108.338 115.132 108.006 115.121 107.755 115.166C107.526 115.189 107.251 115.281 106.931 115.441C105.993 115.898 105.17 116.436 104.461 117.053C103.774 117.648 103.431 118.254 103.431 118.872C103.431 120.016 104.003 120.713 105.147 120.965C106.313 121.194 107.789 121.308 109.573 121.308C110.008 121.308 110.58 121.308 111.289 121.308C111.998 121.285 112.764 121.274 113.588 121.274C114.411 121.274 115.189 121.274 115.921 121.274C116.676 121.251 117.293 121.239 117.774 121.239C119.443 121.239 121.045 121.377 122.577 121.651C124.11 121.926 125.471 122.44 126.66 123.195C127.873 123.927 128.833 125.002 129.542 126.42C130.251 127.816 130.606 129.657 130.606 131.945C130.606 134.598 129.84 136.84 128.307 138.67C126.797 140.522 124.659 141.941 121.891 142.924C119.146 143.908 115.909 144.4 112.181 144.4C107.103 144.4 103.042 143.69 100 142.272C96.9808 140.854 95.4711 138.692 95.4711 135.787C95.4711 133.729 96.0772 131.956 97.2896 130.469C98.5019 128.982 99.8515 127.85 101.338 127.072C101.796 126.844 101.99 126.695 101.922 126.626C101.876 126.581 101.636 126.455 101.201 126.249C100.172 125.768 99.3597 125.094 98.765 124.224C98.1702 123.355 97.8729 122.2 97.8729 120.759C97.8729 119.387 98.3418 118.151 99.2796 117.053C100.217 115.955 101.498 115.04 103.123 114.308C103.717 114.057 103.98 113.897 103.912 113.828C103.843 113.737 103.569 113.554 103.088 113.279C101.304 112.204 99.9201 110.763 98.9365 108.956C97.9758 107.126 97.4954 105.056 97.4954 102.746ZM124.739 133.797C124.739 132.059 124.19 130.595 123.092 129.406C121.994 128.216 120.324 127.621 118.082 127.621C117.602 127.621 116.847 127.621 115.818 127.621C114.788 127.621 113.759 127.621 112.73 127.621C111.7 127.621 110.934 127.621 110.431 127.621C109.653 127.621 108.875 127.61 108.098 127.587C107.343 127.587 106.588 127.553 105.833 127.484C105.559 127.438 105.353 127.427 105.216 127.45C105.101 127.496 104.964 127.61 104.804 127.793C103.889 128.754 103.328 129.76 103.123 130.812C102.94 131.887 102.848 132.791 102.848 133.523C102.848 135.765 103.706 137.514 105.421 138.773C107.16 140.031 109.779 140.66 113.279 140.66C115.2 140.66 117.03 140.408 118.769 139.905C120.53 139.424 121.959 138.67 123.057 137.64C124.178 136.634 124.739 135.353 124.739 133.797Z" fill="#610035"/>
<path d="M78.6138 78.5903C78.6138 77.2864 79.0713 76.1999 79.9862 75.3307C80.9241 74.4615 82.0335 74.0269 83.3144 74.0269C84.5954 74.0269 85.6934 74.4615 86.6083 75.3307C87.5233 76.1999 87.9808 77.2864 87.9808 78.5903C87.9808 79.8712 87.5233 80.9463 86.6083 81.8156C85.6934 82.6848 84.5954 83.1194 83.3144 83.1194C82.0335 83.1194 80.9241 82.6848 79.9862 81.8156C79.0713 80.9463 78.6138 79.8712 78.6138 78.5903ZM79.1628 95.0941H74.5307C74.2105 95.0941 74.0046 95.0483 73.9131 94.9568C73.8445 94.8425 73.8102 94.6252 73.8102 94.3049V91.7316C73.8102 91.1368 74.0961 90.8395 74.668 90.8395H86.6427C86.9172 90.8395 87.0887 90.8852 87.1573 90.9767C87.2488 91.0682 87.2946 91.2626 87.2946 91.56V121.445C87.2946 121.743 87.3403 121.96 87.4318 122.097C87.5462 122.212 87.7406 122.269 88.0151 122.269H92.6472C92.9674 122.269 93.1847 122.303 93.2991 122.372C93.4134 122.44 93.4706 122.646 93.4706 122.989V125.666C93.4706 126.009 93.4363 126.237 93.3677 126.352C93.2991 126.466 93.0932 126.523 92.7501 126.523H74.8395C74.4507 126.523 74.1762 126.478 74.0161 126.386C73.8788 126.295 73.8102 126.066 73.8102 125.7V123.298C73.8102 122.841 73.8902 122.555 74.0504 122.44C74.2105 122.326 74.4964 122.269 74.9081 122.269H79.1628C79.5516 122.269 79.7804 122.212 79.849 122.097C79.9405 121.96 79.9862 121.708 79.9862 121.342V95.9176C79.9862 95.3686 79.7117 95.0941 79.1628 95.0941Z" fill="#610035"/>
<path d="M8.44061 79.5853H3.36252C2.83641 79.5853 2.4933 79.5281 2.33318 79.4137C2.19593 79.2765 2.12731 78.9677 2.12731 78.4873V76.2227C2.12731 75.6509 2.24168 75.3192 2.47042 75.2277C2.72204 75.1133 3.1109 75.0562 3.63701 75.0562H19.283C19.8549 75.0562 20.2437 75.1248 20.4496 75.262C20.6555 75.3764 20.7927 75.5708 20.8614 75.8453C20.93 76.0969 21.0329 76.4172 21.1702 76.806L33.1792 113.21C33.4308 113.942 33.6023 114.571 33.6938 115.098C33.8082 115.601 33.9683 115.852 34.1742 115.852C34.3572 115.852 34.4944 115.704 34.5859 115.406C34.7003 115.086 34.8719 114.606 35.1006 113.965L47.6586 76.2571C47.8187 75.7767 47.956 75.4565 48.0703 75.2963C48.1847 75.1362 48.5736 75.0562 49.2369 75.0562H64.6427C65.1917 75.0562 65.5577 75.1248 65.7407 75.262C65.9466 75.3764 66.0495 75.7309 66.0495 76.3257V77.8697C66.0495 78.6245 65.9695 79.1049 65.8093 79.3108C65.6492 79.4938 65.2032 79.5853 64.4712 79.5853H60.1136C59.4732 79.5853 59.0729 79.7339 58.9127 80.0313C58.7526 80.3287 58.684 80.7862 58.7069 81.4038L60.2852 120.553C60.3081 121.125 60.3881 121.514 60.5254 121.72C60.6855 121.903 61.0744 121.994 61.692 121.994H66.7701C67.4105 121.994 67.7765 122.051 67.868 122.166C67.9824 122.257 68.0396 122.635 68.0396 123.298V125.014C68.0396 125.608 67.971 126.009 67.8337 126.215C67.7193 126.42 67.3648 126.523 66.7701 126.523H46.3204C45.7715 126.523 45.3597 126.443 45.0852 126.283C44.8336 126.123 44.7078 125.746 44.7078 125.151V123.607C44.7078 122.943 44.7764 122.509 44.9137 122.303C45.0509 122.097 45.4627 121.994 46.1489 121.994H51.2613C51.856 121.994 52.2334 121.891 52.3936 121.685C52.5766 121.457 52.6566 121.056 52.6337 120.484L51.5701 88.3004C51.5243 87.5684 51.5129 86.722 51.5358 85.7613C51.5815 84.7777 51.593 83.9199 51.5701 83.188C51.5701 82.4331 51.49 82.0557 51.3299 82.0557C51.0783 82.0557 50.8267 82.3645 50.5751 82.9821C50.3463 83.5997 50.1176 84.3317 49.8888 85.178C49.6601 86.0244 49.4199 86.8021 49.1683 87.5112L36.2672 125.94C36.1071 126.397 35.9241 126.729 35.7182 126.935C35.5123 127.141 35.0892 127.244 34.4487 127.244H32.2184C31.3721 127.244 30.8231 127.084 30.5715 126.763C30.3427 126.466 30.1369 126.02 29.9539 125.425L16.5381 86.0358C16.3551 85.4868 16.195 84.8349 16.0578 84.0801C15.9205 83.3023 15.7604 82.6161 15.5774 82.0214C15.4173 81.4266 15.1885 81.1293 14.8912 81.1293C14.7539 81.1293 14.651 81.3466 14.5824 81.7812C14.5137 82.2158 14.4566 83.005 14.4108 84.1487L12.9354 119.73C12.9125 120.645 13.0269 121.251 13.2785 121.548C13.5301 121.846 14.1477 121.994 15.1313 121.994H19.3517C20.015 121.994 20.4382 122.074 20.6212 122.234C20.827 122.394 20.93 122.818 20.93 123.504V125.082C20.93 125.723 20.7813 126.123 20.4839 126.283C20.2094 126.443 19.7519 126.523 19.1115 126.523H1.54401C0.88066 126.523 0.457486 126.443 0.274492 126.283C0.0914972 126.123 0 125.723 0 125.082V123.401C0 122.783 0.08006 122.394 0.24018 122.234C0.4003 122.074 0.789163 121.994 1.40677 121.994H6.21037C6.85085 121.994 7.27402 121.857 7.47989 121.582C7.70864 121.285 7.83445 120.862 7.85732 120.313L9.74445 80.9577C9.76732 80.4545 9.68726 80.0999 9.50427 79.8941C9.34415 79.6882 8.9896 79.5853 8.44061 79.5853Z" fill="#610035"/>
<path d="M291.812 0C293.001 0 294.071 0.23016 295.022 0.805613C295.854 1.38107 296.567 2.07163 297.043 2.87726C297.518 3.6829 297.756 4.71871 297.637 5.75453C297.637 6.79034 297.281 7.82614 296.805 8.86195C296.33 9.20722 295.973 9.09215 295.854 8.63179C295.735 7.48089 295.022 6.44506 293.714 5.63943C292.406 4.8338 290.266 4.37343 287.413 4.37343C285.629 4.37343 283.965 4.48851 282.538 4.83378C280.993 5.06396 279.566 5.63942 278.258 6.56014C276.95 7.36577 275.643 8.63179 274.335 10.2431C273.027 11.8543 271.6 14.041 270.174 16.6881C268.747 19.3352 267.201 22.6728 265.537 26.5859C263.872 30.499 262.089 35.2177 260.187 40.7421C261.851 40.7421 263.516 40.627 265.18 40.627C266.845 40.627 268.509 40.627 270.174 40.627C270.53 40.742 270.649 40.8571 270.53 41.0873C270.411 41.3175 270.174 41.4326 269.698 41.5477C268.152 41.5477 266.607 41.6628 264.942 41.6628C263.278 41.6628 261.495 41.7779 259.83 41.893C259.711 42.1231 259.592 42.4684 259.473 42.8137C259.355 43.1589 259.236 43.3891 259.117 43.7344C256.62 50.87 253.886 56.9698 250.913 61.9187C247.941 66.8676 244.969 71.0109 241.759 74.1183C238.549 77.2258 235.339 79.5276 232.129 81.0237C228.919 82.4048 225.59 83.2105 222.38 83.2105C220.24 83.2105 218.575 82.7501 217.386 81.8294C216.197 80.9086 215.722 79.7578 215.722 78.2616C215.722 76.7654 216.316 75.2692 217.624 74.0032C217.862 73.8881 217.981 73.773 218.218 73.8881C218.337 74.0032 218.456 74.1183 218.456 74.3485C218.1 74.9239 217.981 75.4994 218.099 76.1899C218.218 76.8805 218.456 77.4559 218.932 78.0314C219.407 78.6068 220.121 79.0672 221.191 79.4125C222.142 79.7578 223.45 79.9879 224.995 79.9879C227.967 79.9879 230.702 79.6427 233.08 78.837C235.458 78.0314 237.716 76.4201 239.857 73.8881C241.997 71.3561 244.255 67.6732 246.514 62.9545C248.773 58.2358 251.27 51.7907 254.123 43.8495L254.718 42.3533C253.529 42.4684 252.34 42.5835 251.151 42.6986C250.081 42.8137 249.011 43.0439 247.941 43.159C247.584 43.159 247.584 42.9288 247.703 42.6986C247.941 42.4684 248.179 42.2382 248.654 42.0081C249.13 41.7779 249.606 41.5477 250.2 41.3175C250.794 41.0873 251.389 40.9722 251.864 40.9722C252.34 40.9722 252.934 40.8571 253.529 40.8571C254.123 40.8571 254.599 40.7421 255.193 40.7421C257.928 33.6064 260.662 27.5066 263.635 22.4427C266.607 17.2636 269.698 13.0052 272.789 9.6676C275.88 6.32997 279.09 3.91308 282.301 2.30181C285.392 0.805634 288.602 0 291.812 0Z" fill="#610035"/>
<path d="M279.209 40.397C281.468 40.397 283.133 40.9724 284.322 42.2384C285.392 43.3893 285.986 44.8855 285.986 46.4968C285.986 48.6835 285.51 50.7551 284.44 52.7117C283.37 54.6682 282.181 56.2795 280.755 57.7757C279.328 59.2718 277.664 60.4227 275.999 61.2284C274.335 62.034 272.789 62.4944 271.362 62.4944C269.104 62.4944 267.439 61.9189 266.369 60.768C265.18 59.6171 264.705 58.1209 264.705 56.2795C264.705 54.6682 265.061 52.8268 265.893 51.1004C266.726 49.259 267.796 47.5326 269.104 46.0364C270.411 44.5403 271.957 43.1591 273.74 42.1233C275.524 41.0875 277.307 40.397 279.209 40.397ZM273.859 59.7322C275.88 59.7322 277.545 58.8115 278.971 56.97C280.398 55.1286 281.112 52.5966 281.112 49.259C281.112 47.5326 280.755 46.1515 279.923 45.0006C279.09 43.8497 278.02 43.2742 276.475 43.2742C274.335 43.2742 272.67 44.195 271.362 45.9213C270.055 47.6477 269.46 50.2948 269.46 53.7475C269.46 55.704 269.817 57.2002 270.649 58.236C271.481 59.1567 272.551 59.7322 273.859 59.7322Z" fill="#610035"/>
<path d="M300.253 42.929C300.253 43.7347 300.134 44.7705 300.015 45.8063C299.777 46.8421 299.539 47.993 299.183 49.1439C300.491 46.3817 301.917 44.3101 303.463 42.6988C305.008 41.2026 306.673 40.397 308.575 40.397C309.526 40.397 310.359 40.6272 310.834 40.9725C311.31 41.3177 311.666 41.8932 311.666 42.4687C311.666 43.0441 311.429 43.7347 310.953 44.6554C310.477 45.5761 310.002 46.1516 309.764 46.4968C309.645 46.6119 309.526 46.4968 309.407 46.4968C309.289 46.3817 309.17 46.2666 309.17 46.1515C309.17 45.8063 308.932 45.461 308.575 45.1157C308.218 44.8856 307.624 44.6554 306.911 44.6554C304.652 44.6554 302.512 46.0365 300.728 48.6836C298.826 51.4457 297.162 55.2437 295.616 60.4228C295.497 60.653 295.378 60.9982 294.903 61.1133C294.546 61.3435 294.071 61.4586 293.595 61.5737C293.119 61.6888 292.644 61.8039 292.049 61.919C291.574 62.0341 291.098 62.0341 290.623 62.0341C289.909 62.0341 289.672 61.6888 290.028 60.9983C290.623 59.8474 291.217 58.4662 291.693 57.0851C292.287 55.7041 292.763 54.323 293.238 52.8268C293.714 51.4457 294.07 50.0646 294.427 48.6836C294.784 47.3025 295.022 46.1515 295.259 45.0006C295.378 44.195 295.497 43.5045 295.378 43.0441C295.378 42.5838 295.022 42.3536 294.546 42.3536C293.952 42.3536 293.238 42.5838 292.525 43.0441C291.812 43.5045 291.217 44.195 290.623 44.8856C290.385 45.0007 290.147 45.1158 289.909 44.8856C289.672 44.7705 289.672 44.5403 289.79 44.3101C290.147 43.8498 290.623 43.3894 291.217 42.929C291.812 42.4687 292.406 42.0083 293.119 41.5479C293.833 41.0876 294.546 40.7423 295.259 40.5121C295.973 40.2819 296.805 40.0518 297.518 40.0518C298.588 40.0518 299.302 40.2819 299.658 40.7423C300.015 41.4329 300.253 42.1234 300.253 42.929Z" fill="#610035"/>
<path d="M313.489 148.841C312.831 148.841 312.218 148.716 311.649 148.464C311.089 148.212 310.642 147.903 310.309 147.538L310.809 145.479C311.069 145.95 311.442 146.36 311.93 146.71C312.417 147.059 312.957 147.233 313.55 147.233C314.053 147.233 314.463 147.083 314.78 146.783C315.097 146.474 315.255 146.1 315.255 145.662C315.255 145.321 315.174 145.041 315.012 144.821C314.857 144.602 314.675 144.427 314.463 144.298C314.252 144.159 314.078 144.058 313.94 143.993L312.624 143.335C312.332 143.181 312.023 142.99 311.698 142.763C311.373 142.535 311.097 142.239 310.87 141.873C310.642 141.5 310.529 141.029 310.529 140.46C310.529 139.875 310.663 139.36 310.931 138.913C311.199 138.466 311.576 138.117 312.064 137.865C312.551 137.614 313.115 137.488 313.757 137.488C314.374 137.488 314.922 137.593 315.401 137.805C315.881 138.008 316.262 138.223 316.547 138.45L316.059 140.485C315.799 140.103 315.454 139.774 315.024 139.498C314.601 139.214 314.151 139.071 313.672 139.071C313.233 139.071 312.888 139.197 312.636 139.449C312.384 139.693 312.258 139.993 312.258 140.351C312.258 140.602 312.315 140.818 312.429 140.996C312.551 141.175 312.697 141.325 312.868 141.447C313.046 141.561 313.221 141.662 313.391 141.752L314.731 142.422C314.918 142.511 315.137 142.637 315.389 142.799C315.649 142.953 315.901 143.152 316.145 143.396C316.388 143.64 316.587 143.936 316.741 144.285C316.904 144.635 316.985 145.053 316.985 145.54C316.985 146.174 316.835 146.742 316.534 147.246C316.242 147.741 315.836 148.131 315.316 148.415C314.796 148.699 314.187 148.841 313.489 148.841Z" fill="#610035"/>
<path d="M299.638 139.291V137.683H307.069V139.291H304.267V148.647H302.44V139.291H299.638Z" fill="#610035"/>
<path d="M288.414 148.647V137.683H290.168V141.228H293.701V137.683H295.455V148.647H293.701V142.836H290.168V148.647H288.414Z" fill="#610035"/>
<path d="M279.975 148.866C279.163 148.866 278.404 148.724 277.697 148.439C276.991 148.147 276.369 147.745 275.833 147.233C275.306 146.714 274.891 146.109 274.591 145.418C274.298 144.728 274.152 143.981 274.152 143.177C274.152 142.373 274.298 141.626 274.591 140.935C274.891 140.245 275.306 139.64 275.833 139.12C276.369 138.6 276.987 138.194 277.685 137.902C278.392 137.61 279.151 137.463 279.963 137.463C280.727 137.463 281.441 137.593 282.107 137.853C282.773 138.113 283.362 138.479 283.874 138.95L283.362 141.045C283.021 140.493 282.558 140.042 281.973 139.693C281.388 139.335 280.718 139.157 279.963 139.157C279.216 139.157 278.546 139.335 277.953 139.693C277.36 140.05 276.889 140.533 276.54 141.142C276.191 141.743 276.016 142.421 276.016 143.177C276.016 143.932 276.187 144.614 276.528 145.223C276.877 145.824 277.348 146.303 277.941 146.661C278.542 147.018 279.212 147.197 279.951 147.197C280.341 147.197 280.71 147.152 281.059 147.063C281.409 146.973 281.725 146.848 282.01 146.685V144.188H279.391V142.653H283.679V147.733C283.183 148.098 282.615 148.378 281.973 148.573C281.34 148.768 280.674 148.866 279.975 148.866Z" fill="#610035"/>
<path d="M267.894 148.647V137.683H269.721V148.647H267.894Z" fill="#610035"/>
<path d="M255.913 148.647V137.683H258.97C259.709 137.683 260.343 137.833 260.871 138.134C261.407 138.426 261.817 138.816 262.101 139.303C262.385 139.791 262.528 140.327 262.528 140.911C262.528 141.496 262.381 142.024 262.089 142.495C261.797 142.966 261.387 143.332 260.859 143.591L264.148 148.647H262.138L259.178 144.042H257.667V148.647H255.913ZM257.667 142.544H258.946C259.376 142.544 259.726 142.463 259.994 142.3C260.27 142.138 260.473 141.931 260.603 141.679C260.741 141.427 260.81 141.171 260.81 140.911C260.81 140.44 260.639 140.055 260.298 139.754C259.957 139.445 259.506 139.291 258.946 139.291H257.667V142.544Z" fill="#610035"/>
<path d="M238.075 148.647V137.683H241.133C241.872 137.683 242.506 137.833 243.033 138.134C243.569 138.426 243.98 138.816 244.264 139.303C244.548 139.791 244.69 140.327 244.69 140.911C244.69 141.496 244.544 142.024 244.252 142.495C243.959 142.966 243.549 143.332 243.021 143.591L246.31 148.647H244.3L241.34 144.042H239.83V148.647H238.075ZM239.83 142.544H241.109C241.539 142.544 241.888 142.463 242.156 142.3C242.432 142.138 242.635 141.931 242.765 141.679C242.903 141.427 242.972 141.171 242.972 140.911C242.972 140.44 242.802 140.055 242.461 139.754C242.12 139.445 241.669 139.291 241.109 139.291H239.83V142.544Z" fill="#610035"/>
<path d="M227.946 148.866C227.15 148.866 226.403 148.72 225.704 148.427C225.006 148.127 224.393 147.717 223.865 147.197C223.345 146.677 222.935 146.072 222.634 145.382C222.334 144.691 222.184 143.952 222.184 143.165C222.184 142.377 222.334 141.638 222.634 140.947C222.935 140.257 223.345 139.652 223.865 139.132C224.393 138.613 225.006 138.206 225.704 137.914C226.403 137.614 227.15 137.463 227.946 137.463C228.75 137.463 229.497 137.614 230.187 137.914C230.886 138.206 231.499 138.613 232.027 139.132C232.555 139.652 232.965 140.257 233.257 140.947C233.558 141.638 233.708 142.377 233.708 143.165C233.708 143.952 233.558 144.691 233.257 145.382C232.965 146.072 232.555 146.677 232.027 147.197C231.499 147.717 230.886 148.127 230.187 148.427C229.497 148.72 228.75 148.866 227.946 148.866ZM227.946 147.148C228.677 147.148 229.335 146.969 229.919 146.612C230.512 146.255 230.979 145.776 231.32 145.175C231.669 144.566 231.844 143.895 231.844 143.165C231.844 142.426 231.669 141.756 231.32 141.155C230.979 140.554 230.512 140.074 229.919 139.717C229.335 139.36 228.677 139.181 227.946 139.181C227.215 139.181 226.553 139.36 225.96 139.717C225.375 140.074 224.908 140.554 224.559 141.155C224.218 141.756 224.048 142.426 224.048 143.165C224.048 143.895 224.218 144.566 224.559 145.175C224.908 145.776 225.375 146.255 225.96 146.612C226.553 146.969 227.215 147.148 227.946 147.148Z" fill="#610035"/>
<path d="M213.246 148.647V137.683H218.874V139.218H215V141.265H218.509V142.8H215V148.647H213.246Z" fill="#610035"/>
<path d="M193.456 148.647V137.683H197.11C198.044 137.683 198.873 137.837 199.595 138.146C200.326 138.447 200.944 138.857 201.447 139.376C201.951 139.888 202.332 140.473 202.592 141.131C202.852 141.788 202.982 142.467 202.982 143.165C202.982 143.863 202.852 144.542 202.592 145.199C202.332 145.857 201.951 146.446 201.447 146.966C200.944 147.477 200.326 147.888 199.595 148.196C198.873 148.497 198.044 148.647 197.11 148.647H193.456ZM195.21 147.039H196.94C197.671 147.039 198.296 146.929 198.816 146.71C199.344 146.483 199.778 146.182 200.119 145.809C200.46 145.435 200.712 145.021 200.875 144.566C201.037 144.103 201.118 143.636 201.118 143.165C201.118 142.694 201.037 142.231 200.875 141.776C200.712 141.313 200.46 140.895 200.119 140.522C199.778 140.148 199.344 139.852 198.816 139.632C198.296 139.405 197.671 139.291 196.94 139.291H195.21V147.039Z" fill="#610035"/>
<path d="M183.501 148.647V137.683H189.129V139.255H185.255V141.265H188.276V142.8H185.255V147.039H189.129V148.647H183.501Z" fill="#610035"/>
<path d="M171.885 139.291V137.683H179.316V139.291H176.514V148.647H174.687V139.291H171.885Z" fill="#610035"/>
<path d="M165.773 148.647V137.683H167.6V148.647H165.773Z" fill="#610035"/>
<path d="M160.678 149.012L153.552 141.618V148.647H151.871V137.317L158.997 144.7V137.683H160.678V149.012Z" fill="#610035"/>
<path d="M143.363 148.854C142.632 148.854 141.983 148.7 141.414 148.391C140.846 148.074 140.399 147.636 140.074 147.075C139.749 146.507 139.587 145.841 139.587 145.078V137.683H141.414V144.992C141.414 145.65 141.601 146.178 141.974 146.576C142.348 146.966 142.823 147.161 143.4 147.161C143.96 147.161 144.427 146.97 144.801 146.588C145.182 146.198 145.373 145.687 145.373 145.053V137.683H147.14V145.029C147.14 145.8 146.977 146.474 146.652 147.051C146.336 147.628 145.893 148.074 145.325 148.391C144.764 148.7 144.11 148.854 143.363 148.854Z" fill="#610035"/>
</svg>
