<svg width="257" height="121" viewBox="0 0 257 121" fill="none" xmlns="http://www.w3.org/2000/svg">
<path d="M187.224 32.4946C186.521 30.4611 185.385 28.899 183.813 27.8083C182.242 26.7176 180.56 26.1722 178.766 26.1722C177.38 26.1722 176.308 26.505 175.55 27.1705C174.81 27.836 174.441 28.7049 174.441 29.7771C174.441 30.9972 174.856 31.9585 175.688 32.661C176.539 33.3635 177.629 33.9273 178.96 34.3525C180.291 34.7592 181.696 35.1751 183.175 35.6003C184.673 36.007 186.078 36.5246 187.39 37.1532C188.721 37.7632 189.803 38.6229 190.635 39.732C191.485 40.8227 191.91 42.2832 191.91 44.1133C191.91 46.1099 191.448 47.7921 190.524 49.1601C189.599 50.5281 188.352 51.5634 186.78 52.2659C185.227 52.9683 183.508 53.3196 181.623 53.3196C179.811 53.3196 178.203 53.0238 176.798 52.4322C175.411 51.8407 174.283 51.1752 173.415 50.4357C173.137 50.1954 172.915 50.0752 172.749 50.0752C172.583 50.0752 172.435 50.2508 172.305 50.6021L171.64 52.46C171.547 52.6633 171.427 52.8204 171.279 52.9314C171.131 53.0608 170.9 53.1255 170.586 53.1255H168.922C168.645 53.1255 168.46 53.07 168.368 52.9591C168.275 52.8482 168.229 52.6448 168.229 52.349V43.6142C168.229 43.2814 168.275 43.0596 168.368 42.9487C168.46 42.8193 168.664 42.7546 168.978 42.7546H171.03C171.363 42.7546 171.575 42.8193 171.668 42.9487C171.778 43.0781 171.88 43.2629 171.973 43.5033C172.435 44.9822 173.063 46.2115 173.858 47.1913C174.672 48.1526 175.642 48.8736 176.77 49.3542C177.916 49.8349 179.229 50.0752 180.707 50.0752C182.538 50.0752 183.933 49.687 184.895 48.9106C185.874 48.1341 186.364 47.0896 186.364 45.7771C186.364 44.557 185.948 43.6142 185.116 42.9487C184.285 42.2832 183.212 41.7563 181.9 41.3681C180.606 40.9614 179.229 40.5639 177.768 40.1757C176.308 39.769 174.921 39.2421 173.609 38.5951C172.315 37.9481 171.252 37.0515 170.42 35.9053C169.588 34.7592 169.172 33.2248 169.172 31.3022C169.172 29.5275 169.569 28.0301 170.364 26.81C171.159 25.5714 172.231 24.6286 173.581 23.9816C174.949 23.3161 176.465 22.9833 178.129 22.9833C179.959 22.9833 181.521 23.2883 182.815 23.8984C184.127 24.5084 185.163 25.1832 185.921 25.9227C186.198 26.2 186.374 26.3756 186.447 26.4495C186.54 26.505 186.66 26.3016 186.808 25.8395L187.529 23.7875C187.621 23.5287 187.723 23.3623 187.834 23.2883C187.963 23.2144 188.204 23.1774 188.555 23.1774H190.191C190.672 23.1774 190.912 23.4362 190.912 23.9538V32.6055C190.912 32.9013 190.856 33.0954 190.746 33.1878C190.635 33.2803 190.422 33.3265 190.108 33.3265H188.167C187.779 33.3265 187.547 33.2618 187.473 33.1324C187.4 32.9845 187.316 32.7719 187.224 32.4946Z" fill="white"/>
<path d="M164.483 47.1914C164.058 48.2821 163.485 49.2896 162.764 50.2139C162.061 51.1382 161.155 51.8777 160.046 52.4323C158.956 52.9869 157.634 53.2642 156.081 53.2642C153.918 53.2642 152.356 52.7188 151.395 51.6281C150.433 50.5374 149.953 49.1324 149.953 47.4132V28.1411C149.953 27.7898 149.888 27.5403 149.759 27.3924C149.648 27.2445 149.417 27.1705 149.065 27.1705H145.738C145.35 27.1705 145.091 27.1243 144.961 27.0319C144.85 26.9395 144.795 26.7084 144.795 26.3386V24.5085C144.795 24.1388 144.841 23.9169 144.934 23.843C145.044 23.769 145.276 23.7321 145.627 23.7321C146.644 23.7321 147.494 23.6674 148.178 23.5379C148.88 23.3901 149.472 23.085 149.953 22.6229C150.452 22.1607 150.886 21.4397 151.256 20.46C151.644 19.4802 152.032 18.1584 152.421 16.4946C152.495 16.1619 152.568 15.94 152.642 15.8291C152.735 15.7182 152.994 15.6627 153.419 15.6627H155.11C155.609 15.6627 155.859 15.9308 155.859 16.4669V22.8447C155.859 23.2329 155.942 23.4825 156.109 23.5934C156.293 23.6858 156.562 23.7321 156.913 23.7321H162.986C163.337 23.7321 163.568 23.7875 163.679 23.8984C163.808 24.0094 163.873 24.2497 163.873 24.6194V26.4773C163.873 26.7916 163.799 26.9857 163.651 27.0596C163.522 27.1336 163.291 27.1705 162.958 27.1705H156.968C156.599 27.1705 156.321 27.226 156.136 27.3369C155.951 27.4293 155.859 27.6789 155.859 28.0856V46.2763C155.859 47.367 156.072 48.1619 156.497 48.661C156.941 49.1417 157.523 49.382 158.244 49.382C159.002 49.382 159.686 49.1232 160.296 48.6056C160.906 48.088 161.451 47.3208 161.932 46.304C162.08 46.0267 162.2 45.8603 162.292 45.8049C162.403 45.7494 162.616 45.7772 162.93 45.8881L164.012 46.3595C164.252 46.4519 164.418 46.5536 164.511 46.6645C164.603 46.7754 164.594 46.951 164.483 47.1914Z" fill="white"/>
<path d="M112.898 12.7511H109.21C108.896 12.7511 108.702 12.7233 108.628 12.6679C108.573 12.5939 108.545 12.3998 108.545 12.0856V9.95037C108.545 9.67308 108.591 9.49746 108.683 9.42351C108.776 9.34956 108.97 9.31259 109.266 9.31259H118.583C118.897 9.31259 119.091 9.37729 119.165 9.5067C119.258 9.61762 119.304 9.83946 119.304 10.1722V27.8083C119.304 28.4183 119.322 28.7603 119.359 28.8343C119.415 28.9082 119.498 28.8343 119.609 28.6125C119.72 28.3721 119.859 28.1226 120.025 27.8637C120.912 26.4958 122.169 25.3588 123.796 24.453C125.423 23.5472 127.262 23.0942 129.314 23.0942C132.328 23.0942 134.601 23.8522 136.136 25.3681C137.67 26.884 138.437 29.1301 138.437 32.1064V48.3283C138.437 48.6795 138.484 48.9013 138.576 48.9938C138.687 49.0862 138.927 49.1324 139.297 49.1324H142.819C143.078 49.1324 143.244 49.1694 143.318 49.2433C143.392 49.3173 143.429 49.4837 143.429 49.7425V51.9886C143.429 52.2474 143.383 52.4138 143.29 52.4877C143.216 52.5432 143.041 52.5709 142.763 52.5709H128.51C128.251 52.5709 128.085 52.5247 128.011 52.4323C127.937 52.3213 127.9 52.1365 127.9 51.8777V49.8257C127.9 49.6038 127.919 49.4374 127.956 49.3265C128.011 49.1971 128.14 49.1324 128.344 49.1324H131.81C132.143 49.1324 132.346 49.0862 132.42 48.9938C132.494 48.9013 132.531 48.6887 132.531 48.356V32.7442C132.531 30.7846 132.134 29.2964 131.339 28.2797C130.562 27.2445 129.333 26.7268 127.651 26.7268C125.987 26.7268 124.526 27.1798 123.269 28.0856C122.031 28.9729 121.06 30.1838 120.358 31.7182C119.655 33.2526 119.304 34.9718 119.304 36.8759V48.4114C119.304 48.7257 119.359 48.9291 119.47 49.0215C119.6 49.0954 119.812 49.1324 120.108 49.1324H123.131C123.482 49.1324 123.713 49.1879 123.824 49.2988C123.935 49.4097 123.99 49.6408 123.99 49.992V51.7667C123.99 52.0255 123.953 52.2289 123.879 52.3768C123.805 52.5062 123.63 52.5709 123.352 52.5709H109.099C108.841 52.5709 108.683 52.5524 108.628 52.5154C108.573 52.46 108.545 52.2936 108.545 52.0163V49.8257C108.545 49.5299 108.563 49.345 108.6 49.2711C108.637 49.1786 108.813 49.1324 109.127 49.1324H112.732C113.065 49.1324 113.277 49.0954 113.37 49.0215C113.481 48.9291 113.536 48.7257 113.536 48.4114V13.5275C113.536 13.2502 113.499 13.0561 113.425 12.9452C113.351 12.8158 113.176 12.7511 112.898 12.7511Z" fill="white"/>
<path d="M83.1427 33.3543C83.1427 34.6668 83.2998 35.9147 83.6141 37.0978C83.9469 38.2624 84.5015 39.2052 85.2779 39.9262C86.0543 40.6472 87.1173 41.0077 88.4668 41.0077C89.7978 41.0077 90.8516 40.6472 91.628 39.9262C92.4044 39.2052 92.9498 38.2624 93.264 37.0978C93.5968 35.9147 93.7632 34.6668 93.7632 33.3543C93.7632 32.0417 93.5968 30.8032 93.264 29.6385C92.9498 28.4739 92.4044 27.531 91.628 26.8101C90.8516 26.0706 89.7978 25.7009 88.4668 25.7009C87.1173 25.7009 86.0543 26.0706 85.2779 26.8101C84.5015 27.531 83.9469 28.4739 83.6141 29.6385C83.2998 30.8032 83.1427 32.0417 83.1427 33.3543ZM77.0422 33.3543C77.0422 31.3023 77.5136 29.5091 78.4564 27.9747C79.4177 26.4219 80.7579 25.2202 82.4772 24.3699C84.1964 23.5195 86.193 23.0943 88.4668 23.0943C90.1306 23.0943 91.6465 23.3346 93.0145 23.8153C94.3825 24.2774 95.5563 24.9337 96.5361 25.7841C96.7395 25.9505 96.8689 26.0336 96.9244 26.0336C96.9798 26.0152 97.0907 25.9135 97.2571 25.7286C98.1075 24.8043 99.0226 24.1388 100.002 23.7321C100.982 23.3069 101.851 23.0943 102.609 23.0943C103.903 23.0943 104.984 23.3161 105.853 23.7598C106.722 24.2035 107.378 24.8043 107.822 25.5622C108.266 26.3202 108.488 27.1983 108.488 28.1966C108.488 29.2688 108.164 30.1007 107.517 30.6922C106.889 31.2838 106.121 31.5796 105.216 31.5796C104.328 31.5796 103.616 31.33 103.08 30.8309C102.544 30.3133 102.276 29.7032 102.276 29.0007C102.276 28.3722 102.369 27.91 102.553 27.6142C102.738 27.3185 102.923 27.0781 103.108 26.8933C103.293 26.6899 103.385 26.4496 103.385 26.1723C103.385 25.6547 103.071 25.3959 102.443 25.3959C101.833 25.3959 101.204 25.5622 100.557 25.895C99.9099 26.2093 99.2999 26.7639 98.7268 27.5588C98.6159 27.7252 98.5419 27.8546 98.5049 27.947C98.468 28.0394 98.5049 28.1873 98.6159 28.3907C99.4108 29.8881 99.8082 31.5426 99.8082 33.3543C99.8082 35.4248 99.3276 37.2272 98.3663 38.7616C97.4235 40.2959 96.1017 41.4883 94.4009 42.3387C92.7002 43.1891 90.7221 43.6143 88.4668 43.6143C88.0601 43.6143 87.6626 43.605 87.2744 43.5865C86.9047 43.5496 86.5257 43.4941 86.1375 43.4202C85.8047 43.3647 85.5367 43.3555 85.3333 43.3924C85.1485 43.4109 84.9266 43.4849 84.6678 43.6143C83.9099 43.984 83.2444 44.4184 82.6713 44.9176C82.1167 45.3982 81.8394 45.8881 81.8394 46.3872C81.8394 47.3116 82.3016 47.8754 83.2259 48.0787C84.1687 48.2636 85.3611 48.356 86.803 48.356C87.1543 48.356 87.6164 48.356 88.1895 48.356C88.7626 48.3376 89.3819 48.3283 90.0474 48.3283C90.7129 48.3283 91.3414 48.3283 91.933 48.3283C92.5431 48.3098 93.0422 48.3006 93.4304 48.3006C94.7799 48.3006 96.074 48.4115 97.3126 48.6333C98.5512 48.8552 99.6511 49.2711 100.612 49.8812C101.592 50.4727 102.369 51.3416 102.942 52.4878C103.515 53.6154 103.801 55.1036 103.801 56.9522C103.801 59.0967 103.182 60.9083 101.943 62.3873C100.723 63.8847 98.9948 65.0308 96.758 65.8257C94.5396 66.6207 91.9238 67.0181 88.9105 67.0181C84.8065 67.0181 81.5251 66.445 79.0664 65.2989C76.6262 64.1527 75.4061 62.4057 75.4061 60.058C75.4061 58.3942 75.896 56.9615 76.8758 55.7599C77.8556 54.5582 78.9463 53.6432 80.1479 53.0146C80.5176 52.8298 80.6748 52.7096 80.6193 52.6541C80.5823 52.6172 80.3882 52.5155 80.037 52.3491C79.2051 51.9609 78.5488 51.4155 78.0682 50.7131C77.5875 50.0106 77.3472 49.077 77.3472 47.9124C77.3472 46.8032 77.7262 45.8049 78.4841 44.9176C79.2421 44.0302 80.2773 43.2908 81.5898 42.6992C82.0705 42.4958 82.2831 42.3664 82.2276 42.311C82.1722 42.237 81.9503 42.0891 81.5621 41.8673C80.1202 40.9984 79.0017 39.8338 78.2068 38.3734C77.4304 36.8944 77.0422 35.2214 77.0422 33.3543ZM99.0595 58.4496C99.0595 57.0447 98.6159 55.8615 97.7285 54.9002C96.8412 53.9389 95.4917 53.4583 93.68 53.4583C93.2918 53.4583 92.6817 53.4583 91.8498 53.4583C91.0179 53.4583 90.186 53.4583 89.3541 53.4583C88.5223 53.4583 87.903 53.4583 87.4963 53.4583C86.8677 53.4583 86.2392 53.4491 85.6106 53.4306C85.0006 53.4306 84.3905 53.4028 83.7805 53.3474C83.5586 53.3104 83.3923 53.3012 83.2813 53.3197C83.1889 53.3566 83.078 53.4491 82.9486 53.597C82.2091 54.3734 81.7562 55.1868 81.5898 56.0372C81.4419 56.906 81.368 57.6362 81.368 58.2278C81.368 60.0395 82.0612 61.4537 83.4477 62.4704C84.8527 63.4872 86.9694 63.9956 89.7978 63.9956C91.3507 63.9956 92.8296 63.7922 94.2346 63.3855C95.658 62.9973 96.8134 62.3873 97.7008 61.5554C98.6066 60.742 99.0595 59.7067 99.0595 58.4496Z" fill="white"/>
<path d="M61.7826 13.8326C61.7826 12.7789 62.1523 11.9007 62.8918 11.1983C63.6497 10.4958 64.5463 10.1445 65.5816 10.1445C66.6168 10.1445 67.5042 10.4958 68.2436 11.1983C68.9831 11.9007 69.3528 12.7789 69.3528 13.8326C69.3528 14.8678 68.9831 15.7367 68.2436 16.4392C67.5042 17.1417 66.6168 17.4929 65.5816 17.4929C64.5463 17.4929 63.6497 17.1417 62.8918 16.4392C62.1523 15.7367 61.7826 14.8678 61.7826 13.8326ZM62.2263 27.1706H58.4828C58.224 27.1706 58.0576 27.1336 57.9836 27.0596C57.9282 26.9672 57.9005 26.7916 57.9005 26.5328V24.453C57.9005 23.9724 58.1315 23.7321 58.5937 23.7321H68.2714C68.4932 23.7321 68.6318 23.769 68.6873 23.843C68.7612 23.9169 68.7982 24.0741 68.7982 24.3144V48.4669C68.7982 48.7073 68.8352 48.8829 68.9091 48.9938C69.0016 49.0862 69.1587 49.1325 69.3805 49.1325H73.124C73.3829 49.1325 73.5585 49.1602 73.6509 49.2156C73.7433 49.2711 73.7896 49.4375 73.7896 49.7148V51.8777C73.7896 52.155 73.7618 52.3399 73.7064 52.4323C73.6509 52.5247 73.4845 52.5709 73.2072 52.5709H58.7323C58.4181 52.5709 58.1962 52.534 58.0668 52.46C57.9559 52.3861 57.9005 52.2012 57.9005 51.9054V49.9644C57.9005 49.5946 57.9652 49.3635 58.0946 49.2711C58.224 49.1787 58.455 49.1325 58.7878 49.1325H62.2263C62.5406 49.1325 62.7254 49.0862 62.7809 48.9938C62.8548 48.8829 62.8918 48.6795 62.8918 48.3838V27.8361C62.8918 27.3924 62.67 27.1706 62.2263 27.1706Z" fill="white"/>
<path d="M56.0786 47.2191C55.4685 48.9568 54.4887 50.3895 53.1392 51.5172C51.8082 52.6448 49.9595 53.2087 47.5933 53.2087C45.7077 53.2087 44.275 52.8574 43.2952 52.155C42.3339 51.4525 41.6591 50.5189 41.2709 49.3543C40.9012 48.1896 40.6701 46.914 40.5777 45.5276C40.4852 44.1411 40.3836 42.7638 40.2726 41.3958C40.1617 40.0094 39.8937 38.7338 39.4685 37.5691C39.0618 36.4045 38.3501 35.4709 37.3333 34.7684C36.335 34.066 34.8654 33.7147 32.9243 33.7147H26.5465C25.9364 33.7147 25.5759 33.8071 25.465 33.992C25.3541 34.1584 25.2986 34.5374 25.2986 35.1289V47.94C25.2986 48.3652 25.3633 48.6333 25.4927 48.7442C25.6406 48.8551 25.9364 48.9106 26.3801 48.9106H30.4841C30.8723 48.9106 31.1218 48.9753 31.2328 49.1047C31.3437 49.2341 31.3991 49.5114 31.3991 49.9366V51.6004C31.3991 52.0071 31.3344 52.2751 31.205 52.4045C31.0756 52.5154 30.7983 52.5709 30.3731 52.5709H13.7353C13.3656 52.5709 13.116 52.5154 12.9866 52.4045C12.8757 52.2751 12.8203 52.0256 12.8203 51.6558V49.9089C12.8203 49.4652 12.885 49.1879 13.0144 49.077C13.1623 48.966 13.4396 48.9106 13.8463 48.9106H17.562C18.1536 48.9106 18.5233 48.8459 18.6712 48.7165C18.8376 48.5871 18.9208 48.2358 18.9208 47.6627V15.9955C18.9208 15.3854 18.8376 15.0064 18.6712 14.8585C18.5233 14.7106 18.1536 14.6367 17.562 14.6367H13.874C13.3749 14.6367 13.0698 14.5535 12.9589 14.3871C12.8665 14.2208 12.8203 13.8788 12.8203 13.3611V11.9469C12.8203 11.5587 12.8665 11.2999 12.9589 11.1705C13.0698 11.0411 13.3102 10.9764 13.6799 10.9764H35.1981C38.6736 10.9764 41.4743 11.4663 43.6002 12.4461C45.7261 13.4258 47.2698 14.7569 48.2311 16.4391C49.2108 18.1029 49.7007 19.97 49.7007 22.0405C49.7007 24.2959 49.1739 26.2369 48.1201 27.8638C47.0849 29.4721 45.2732 30.6829 42.6851 31.4963C42.149 31.6812 41.8625 31.8753 41.8255 32.0787C41.7885 32.2635 42.0843 32.5223 42.7129 32.8551C44.0439 33.5576 45.0144 34.4357 45.6245 35.4894C46.253 36.5431 46.669 37.6708 46.8723 38.8724C47.0757 40.0556 47.1773 41.2295 47.1773 42.3941C47.1958 43.5588 47.242 44.6217 47.316 45.583C47.3899 46.5443 47.6118 47.3115 47.9815 47.8846C48.3512 48.4577 49.0167 48.7442 49.978 48.7442C50.4772 48.7442 50.9855 48.5224 51.5032 48.0787C52.0208 47.635 52.4737 46.9695 52.8619 46.0822C52.9913 45.8233 53.1115 45.6385 53.2224 45.5276C53.3333 45.3982 53.5459 45.3982 53.8602 45.5276L55.4408 46.2208C55.7551 46.3687 55.9676 46.5073 56.0786 46.6367C56.1895 46.7477 56.1895 46.9418 56.0786 47.2191ZM26.6019 29.8326H35.1981C36.5661 29.8326 37.8417 29.5553 39.0248 29.0007C40.2264 28.4461 41.197 27.6142 41.9364 26.505C42.6759 25.3773 43.0456 23.9631 43.0456 22.2624C43.0456 20.5616 42.6759 19.1474 41.9364 18.0197C41.197 16.892 40.2264 16.0509 39.0248 15.4963C37.8417 14.9232 36.5661 14.6367 35.1981 14.6367H26.5742C25.9456 14.6367 25.5759 14.7014 25.465 14.8308C25.3541 14.9417 25.2986 15.3207 25.2986 15.9677V28.5015C25.2986 29.0931 25.3633 29.4628 25.4927 29.6107C25.6406 29.7586 26.0103 29.8326 26.6019 29.8326Z" fill="white"/>
<path d="M252.314 82.1769C251.611 80.1434 250.474 78.5813 248.903 77.4906C247.332 76.3999 245.649 75.8545 243.856 75.8545C242.47 75.8545 241.397 76.1873 240.639 76.8528C239.9 77.5183 239.53 78.3871 239.53 79.4594C239.53 80.6795 239.946 81.6408 240.778 82.3432C241.629 83.0457 242.719 83.6096 244.05 84.0348C245.381 84.4415 246.786 84.8574 248.265 85.2826C249.763 85.6893 251.168 86.2069 252.48 86.8355C253.811 87.4455 254.893 88.3051 255.724 89.4143C256.575 90.505 257 91.9654 257 93.7956C257 95.7921 256.538 97.4744 255.614 98.8424C254.689 100.21 253.441 101.246 251.87 101.948C250.317 102.651 248.598 103.002 246.712 103.002C244.901 103.002 243.292 102.706 241.887 102.115C240.501 101.523 239.373 100.857 238.504 100.118C238.227 99.8777 238.005 99.7575 237.839 99.7575C237.672 99.7575 237.525 99.9331 237.395 100.284L236.73 102.142C236.637 102.346 236.517 102.503 236.369 102.614C236.221 102.743 235.99 102.808 235.676 102.808H234.012C233.735 102.808 233.55 102.752 233.458 102.641C233.365 102.53 233.319 102.327 233.319 102.031V93.2965C233.319 92.9637 233.365 92.7419 233.458 92.631C233.55 92.5016 233.753 92.4369 234.068 92.4369H236.12C236.452 92.4369 236.665 92.5016 236.757 92.631C236.868 92.7604 236.97 92.9452 237.062 93.1856C237.525 94.6645 238.153 95.8938 238.948 96.8736C239.761 97.8349 240.732 98.5559 241.86 99.0365C243.006 99.5172 244.318 99.7575 245.797 99.7575C247.627 99.7575 249.023 99.3693 249.984 98.5928C250.964 97.8164 251.454 96.7719 251.454 95.4594C251.454 94.2393 251.038 93.2965 250.206 92.631C249.374 91.9654 248.302 91.4386 246.99 91.0504C245.696 90.6437 244.318 90.2462 242.858 89.858C241.397 89.4513 240.011 88.9244 238.698 88.2774C237.404 87.6304 236.341 86.7338 235.51 85.5876C234.678 84.4415 234.262 82.9071 234.262 80.9845C234.262 79.2098 234.659 77.7124 235.454 76.4923C236.249 75.2537 237.321 74.3109 238.671 73.6639C240.039 72.9983 241.555 72.6656 243.218 72.6656C245.049 72.6656 246.611 72.9706 247.905 73.5807C249.217 74.1907 250.252 74.8655 251.01 75.6049C251.288 75.8822 251.463 76.0579 251.537 76.1318C251.63 76.1873 251.75 75.9839 251.898 75.5217L252.619 73.4697C252.711 73.2109 252.813 73.0446 252.924 72.9706C253.053 72.8967 253.293 72.8597 253.645 72.8597H255.281C255.761 72.8597 256.002 73.1185 256.002 73.6361V82.2878C256.002 82.5836 255.946 82.7777 255.835 82.8701C255.724 82.9625 255.512 83.0088 255.198 83.0088H253.257C252.868 83.0088 252.637 82.9441 252.563 82.8147C252.489 82.6668 252.406 82.4542 252.314 82.1769Z" fill="white"/>
<path d="M229.573 96.8737C229.148 97.9644 228.574 98.9719 227.854 99.8962C227.151 100.821 226.245 101.56 225.136 102.115C224.045 102.669 222.724 102.946 221.171 102.946C219.008 102.946 217.446 102.401 216.484 101.31C215.523 100.22 215.042 98.8148 215.042 97.0955V77.8234C215.042 77.4721 214.978 77.2226 214.848 77.0747C214.737 76.9268 214.506 76.8529 214.155 76.8529H210.827C210.439 76.8529 210.18 76.8066 210.051 76.7142C209.94 76.6218 209.885 76.3907 209.885 76.021V74.1908C209.885 73.8211 209.931 73.5992 210.023 73.5253C210.134 73.4513 210.365 73.4144 210.717 73.4144C211.733 73.4144 212.584 73.3497 213.268 73.2203C213.97 73.0724 214.562 72.7673 215.042 72.3052C215.542 71.843 215.976 71.122 216.346 70.1423C216.734 69.1625 217.122 67.8407 217.51 66.1769C217.584 65.8442 217.658 65.6223 217.732 65.5114C217.825 65.4005 218.083 65.345 218.509 65.345H220.2C220.699 65.345 220.949 65.6131 220.949 66.1492V72.527C220.949 72.9152 221.032 73.1648 221.198 73.2757C221.383 73.3682 221.651 73.4144 222.003 73.4144H228.075C228.427 73.4144 228.658 73.4698 228.769 73.5807C228.898 73.6917 228.963 73.932 228.963 74.3017V76.1596C228.963 76.4739 228.889 76.668 228.741 76.7419C228.611 76.8159 228.38 76.8529 228.048 76.8529H222.058C221.688 76.8529 221.411 76.9083 221.226 77.0192C221.041 77.1117 220.949 77.3612 220.949 77.7679V95.9586C220.949 97.0493 221.161 97.8442 221.587 98.3434C222.03 98.824 222.613 99.0643 223.334 99.0643C224.092 99.0643 224.776 98.8055 225.386 98.2879C225.996 97.7703 226.541 97.0031 227.022 95.9863C227.17 95.709 227.29 95.5427 227.382 95.4872C227.493 95.4317 227.706 95.4595 228.02 95.5704L229.101 96.0418C229.342 96.1342 229.508 96.2359 229.6 96.3468C229.693 96.4577 229.684 96.6334 229.573 96.8737Z" fill="white"/>
<path d="M177.759 76.8529H174.238C173.942 76.8529 173.748 76.7974 173.655 76.6865C173.563 76.5571 173.517 76.3445 173.517 76.0487V74.1631C173.517 73.8858 173.572 73.6917 173.683 73.5808C173.794 73.4699 173.979 73.4144 174.238 73.4144H183.333C183.666 73.4144 183.906 73.5161 184.054 73.7194C184.22 73.9043 184.304 74.1446 184.304 74.4404V77.3797C184.304 78.0822 184.35 78.4242 184.442 78.4057C184.553 78.3873 184.71 78.2209 184.914 77.9066C185.819 76.4647 187.03 75.2538 188.546 74.274C190.081 73.2757 192.049 72.7766 194.453 72.7766C196.763 72.7766 198.584 73.1186 199.915 73.8026C201.246 74.4866 202.189 75.4941 202.744 76.8251C203.298 78.1562 203.576 79.8107 203.576 81.7888V97.5669C203.576 98.0661 203.622 98.3988 203.714 98.5652C203.825 98.7316 204.13 98.8148 204.629 98.8148H207.818C208.133 98.8148 208.336 98.8795 208.428 99.0089C208.521 99.1198 208.567 99.3416 208.567 99.6744V101.532C208.567 101.884 208.493 102.096 208.345 102.17C208.216 102.226 207.966 102.253 207.596 102.253H193.648C193.334 102.253 193.14 102.189 193.066 102.059C193.011 101.911 192.983 101.671 192.983 101.338V99.6744C192.983 99.3601 193.02 99.1383 193.094 99.0089C193.186 98.8795 193.39 98.8148 193.704 98.8148H196.532C196.995 98.8148 197.29 98.7593 197.42 98.6484C197.568 98.519 197.642 98.214 197.642 97.7333V82.4265C197.642 80.467 197.253 78.9788 196.477 77.9621C195.7 76.9268 194.471 76.4092 192.789 76.4092C191.125 76.4092 189.665 76.8621 188.408 77.768C187.15 78.6553 186.171 79.8662 185.468 81.4005C184.784 82.9349 184.442 84.6542 184.442 86.5583V97.6779C184.442 98.1031 184.525 98.3988 184.692 98.5652C184.858 98.7316 185.154 98.8148 185.579 98.8148H188.13C188.518 98.8148 188.777 98.8702 188.907 98.9812C189.055 99.0921 189.129 99.3509 189.129 99.7576V101.394C189.129 101.745 189.064 101.976 188.934 102.087C188.823 102.198 188.602 102.253 188.269 102.253H174.321C173.97 102.253 173.748 102.189 173.655 102.059C173.563 101.93 173.517 101.689 173.517 101.338V99.7299C173.517 99.3416 173.591 99.0921 173.739 98.9812C173.905 98.8702 174.173 98.8148 174.543 98.8148H177.51C177.916 98.8148 178.185 98.7778 178.314 98.7039C178.443 98.6114 178.508 98.3711 178.508 97.9829V77.4352C178.508 77.1764 178.453 77.0193 178.342 76.9638C178.231 76.8898 178.037 76.8529 177.759 76.8529Z" fill="white"/>
<path d="M141.506 95.4317C141.506 93.6385 142.06 92.0117 143.17 90.5513C144.297 89.0724 145.942 87.8985 148.105 87.0296C150.287 86.1423 152.967 85.6986 156.147 85.6986H158.754C159.068 85.6986 159.262 85.6616 159.336 85.5877C159.428 85.5137 159.475 85.3104 159.475 84.9776V81.8996C159.475 80.698 159.327 79.635 159.031 78.7107C158.735 77.7679 158.199 77.0377 157.423 76.5201C156.665 75.984 155.592 75.7159 154.206 75.7159C153.3 75.7159 152.44 75.8083 151.627 75.9932C150.814 76.1781 150.148 76.4184 149.631 76.7142C149.131 77.01 148.882 77.3242 148.882 77.657C148.882 77.9712 149.002 78.2116 149.242 78.3779C149.501 78.5258 149.751 78.7477 149.991 79.0435C150.231 79.3392 150.352 79.8476 150.352 80.5686C150.352 81.5669 150.028 82.3803 149.381 83.0088C148.752 83.6373 147.93 83.9516 146.913 83.9516C145.952 83.9516 145.101 83.702 144.362 83.2029C143.622 82.7038 143.253 81.8257 143.253 80.5686C143.253 79.33 143.613 78.2301 144.334 77.2688C145.055 76.3075 146.016 75.5033 147.218 74.8563C148.42 74.1908 149.751 73.6916 151.211 73.3589C152.69 73.0261 154.169 72.8597 155.648 72.8597C158.236 72.8597 160.233 73.2664 161.637 74.0798C163.061 74.8933 164.041 75.984 164.577 77.352C165.131 78.7199 165.409 80.2081 165.409 81.8164V97.8165C165.409 98.371 165.547 98.7778 165.825 99.0366C166.12 99.2954 166.462 99.4248 166.851 99.4248C167.239 99.4248 167.646 99.3139 168.071 99.092C168.496 98.8702 168.94 98.3895 169.402 97.6501C169.587 97.3358 169.799 97.2711 170.04 97.456L171.343 98.2601C171.583 98.408 171.639 98.6299 171.509 98.9256C171.084 99.739 170.548 100.442 169.901 101.033C169.254 101.606 168.542 102.041 167.766 102.336C166.989 102.651 166.157 102.808 165.27 102.808H165.242C163.874 102.808 162.83 102.586 162.109 102.142C161.388 101.699 160.88 101.181 160.584 100.589C160.288 99.9979 160.075 99.471 159.946 99.0088C159.817 98.6391 159.696 98.4542 159.585 98.4542C159.475 98.4542 159.28 98.6206 159.003 98.9534C158.67 99.397 158.181 99.9239 157.533 100.534C156.905 101.144 156.008 101.68 154.844 102.142C153.698 102.586 152.172 102.808 150.268 102.808C147.717 102.808 145.619 102.17 143.974 100.894C142.328 99.6004 141.506 97.7795 141.506 95.4317ZM148.216 94.5721C148.216 96.2544 148.725 97.4652 149.741 98.2047C150.758 98.9256 151.923 99.2861 153.235 99.2861C155.029 99.2861 156.517 98.6206 157.7 97.2896C158.883 95.9586 159.475 94.0822 159.475 91.6605V88.6657C159.475 88.2959 159.29 88.1111 158.92 88.1111H156.397C154.437 88.1111 152.856 88.3791 151.655 88.9152C150.453 89.4328 149.575 90.1723 149.02 91.1336C148.484 92.0949 148.216 93.2411 148.216 94.5721Z" fill="white"/>
<path d="M118.257 77.9343C118.257 77.4907 118.201 77.2041 118.09 77.0747C117.979 76.9268 117.711 76.8529 117.286 76.8529H114.125C113.718 76.8529 113.469 76.7882 113.376 76.6588C113.302 76.5109 113.265 76.2336 113.265 75.8269V74.4127C113.265 74.006 113.321 73.7379 113.432 73.6085C113.543 73.4791 113.792 73.4144 114.18 73.4144H123.054C123.368 73.4144 123.609 73.4606 123.775 73.553C123.96 73.627 124.052 73.8488 124.052 74.2186V77.0193C124.052 77.4999 124.089 77.768 124.163 77.8234C124.237 77.8789 124.385 77.6848 124.607 77.2411C125.309 75.9655 126.261 74.9026 127.463 74.0522C128.683 73.2018 130.245 72.7766 132.149 72.7766C133.85 72.7766 135.347 73.2665 136.641 74.2463C137.936 75.2261 138.583 76.5756 138.583 78.2948C138.583 79.1082 138.416 79.8662 138.083 80.5687C137.751 81.2711 137.288 81.835 136.697 82.2602C136.124 82.6854 135.449 82.8979 134.673 82.8979C133.6 82.8979 132.704 82.6206 131.983 82.0661C131.262 81.493 130.901 80.7443 130.901 79.82C130.901 79.1175 131.012 78.5814 131.234 78.2116C131.456 77.8234 131.678 77.5184 131.9 77.2966C132.122 77.0747 132.232 76.8529 132.232 76.631C132.232 76.3722 132.122 76.1781 131.9 76.0487C131.696 75.9193 131.29 75.8546 130.68 75.8546C129.478 75.8546 128.378 76.363 127.38 77.3797C126.4 78.3965 125.624 79.7368 125.05 81.4005C124.477 83.0458 124.191 84.8205 124.191 86.7246V97.7056C124.191 98.1308 124.237 98.4266 124.329 98.5929C124.422 98.7408 124.681 98.8148 125.106 98.8148H128.461C128.812 98.8148 129.016 98.8887 129.071 99.0366C129.145 99.166 129.182 99.4063 129.182 99.7576V101.366C129.182 101.699 129.136 101.93 129.044 102.059C128.97 102.189 128.766 102.253 128.433 102.253H114.125C113.848 102.253 113.635 102.216 113.487 102.142C113.339 102.068 113.265 101.902 113.265 101.643V99.5912C113.265 99.2769 113.33 99.0736 113.459 98.9812C113.589 98.8702 113.801 98.8148 114.097 98.8148H117.12C117.545 98.8148 117.841 98.7593 118.007 98.6484C118.173 98.519 118.257 98.2509 118.257 97.8442V77.9343Z" fill="white"/>
<path d="M84.894 83.0366C84.894 84.3491 85.0512 85.597 85.3654 86.7801C85.6982 87.9447 86.2528 88.8876 87.0292 89.6085C87.8056 90.3295 88.8686 90.69 90.2181 90.69C91.5492 90.69 92.6029 90.3295 93.3793 89.6085C94.1557 88.8876 94.7011 87.9447 95.0154 86.7801C95.3481 85.597 95.5145 84.3491 95.5145 83.0366C95.5145 81.7241 95.3481 80.4855 95.0154 79.3208C94.7011 78.1562 94.1557 77.2134 93.3793 76.4924C92.6029 75.7529 91.5492 75.3832 90.2181 75.3832C88.8686 75.3832 87.8056 75.7529 87.0292 76.4924C86.2528 77.2134 85.6982 78.1562 85.3654 79.3208C85.0512 80.4855 84.894 81.7241 84.894 83.0366ZM78.7935 83.0366C78.7935 80.9846 79.2649 79.1914 80.2077 77.657C81.169 76.1042 82.5093 74.9026 84.2285 74.0522C85.9478 73.2018 87.9443 72.7766 90.2181 72.7766C91.8819 72.7766 93.3978 73.0169 94.7658 73.4976C96.1338 73.9597 97.3077 74.616 98.2875 75.4664C98.4908 75.6328 98.6202 75.716 98.6757 75.716C98.7311 75.6975 98.8421 75.5958 99.0084 75.4109C99.8588 74.4866 100.774 73.8211 101.754 73.4144C102.733 72.9892 103.602 72.7766 104.36 72.7766C105.654 72.7766 106.736 72.9984 107.605 73.4421C108.473 73.8858 109.13 74.4866 109.573 75.2446C110.017 76.0025 110.239 76.8806 110.239 77.8789C110.239 78.9511 109.915 79.783 109.268 80.3745C108.64 80.9661 107.873 81.2619 106.967 81.2619C106.08 81.2619 105.368 81.0123 104.832 80.5132C104.296 79.9956 104.028 79.3855 104.028 78.683C104.028 78.0545 104.12 77.5923 104.305 77.2966C104.49 77.0008 104.675 76.7604 104.859 76.5756C105.044 76.3722 105.137 76.1319 105.137 75.8546C105.137 75.337 104.822 75.0782 104.194 75.0782C103.584 75.0782 102.955 75.2446 102.308 75.5773C101.661 75.8916 101.051 76.4462 100.478 77.2411C100.367 77.4075 100.293 77.5369 100.256 77.6293C100.219 77.7217 100.256 77.8696 100.367 78.073C101.162 79.5704 101.56 81.2249 101.56 83.0366C101.56 85.1071 101.079 86.9095 100.118 88.4439C99.1748 89.9783 97.853 91.1706 96.1523 92.021C94.4515 92.8714 92.4735 93.2966 90.2181 93.2966C89.8114 93.2966 89.414 93.2873 89.0257 93.2688C88.656 93.2319 88.277 93.1764 87.8888 93.1025C87.5561 93.047 87.288 93.0378 87.0847 93.0747C86.8998 93.0932 86.678 93.1672 86.4192 93.2966C85.6612 93.6663 84.9957 94.1007 84.4226 94.5999C83.868 95.0805 83.5907 95.5704 83.5907 96.0695C83.5907 96.9939 84.0529 97.5577 84.9772 97.7611C85.92 97.9459 87.1124 98.0384 88.5543 98.0384C88.9056 98.0384 89.3677 98.0384 89.9408 98.0384C90.5139 98.0199 91.1332 98.0106 91.7987 98.0106C92.4642 98.0106 93.0928 98.0106 93.6843 98.0106C94.2944 97.9921 94.7935 97.9829 95.1817 97.9829C96.5312 97.9829 97.8253 98.0938 99.0639 98.3156C100.302 98.5375 101.402 98.9534 102.364 99.5635C103.344 100.155 104.12 101.024 104.693 102.17C105.266 103.298 105.553 104.786 105.553 106.635C105.553 108.779 104.933 110.591 103.695 112.07C102.475 113.567 100.746 114.713 98.5093 115.508C96.2909 116.303 93.6751 116.7 90.6618 116.7C86.5578 116.7 83.2765 116.127 80.8178 114.981C78.3776 113.835 77.1574 112.088 77.1574 109.74C77.1574 108.076 77.6473 106.644 78.6271 105.442C79.6069 104.241 80.6976 103.325 81.8992 102.697C82.2689 102.512 82.4261 102.392 82.3706 102.336C82.3337 102.299 82.1395 102.198 81.7883 102.031C80.9564 101.643 80.3001 101.098 79.8195 100.395C79.3389 99.6929 79.0985 98.7593 79.0985 97.5947C79.0985 96.4855 79.4775 95.4872 80.2354 94.5999C80.9934 93.7125 82.0286 92.9731 83.3412 92.3815C83.8218 92.1781 84.0344 92.0487 83.9789 91.9933C83.9235 91.9193 83.7016 91.7714 83.3134 91.5496C81.8715 90.6807 80.7531 89.5161 79.9581 88.0557C79.1817 86.5767 78.7935 84.9037 78.7935 83.0366ZM100.811 108.132C100.811 106.727 100.367 105.544 99.4798 104.583C98.5925 103.621 97.243 103.141 95.4313 103.141C95.0431 103.141 94.433 103.141 93.6012 103.141C92.7693 103.141 91.9374 103.141 91.1055 103.141C90.2736 103.141 89.6543 103.141 89.2476 103.141C88.619 103.141 87.9905 103.131 87.362 103.113C86.7519 103.113 86.1419 103.085 85.5318 103.03C85.31 102.993 85.1436 102.983 85.0327 103.002C84.9402 103.039 84.8293 103.131 84.6999 103.279C83.9605 104.056 83.5075 104.869 83.3412 105.719C83.1933 106.588 83.1193 107.319 83.1193 107.91C83.1193 109.722 83.8126 111.136 85.1991 112.153C86.604 113.17 88.7207 113.678 91.5492 113.678C93.102 113.678 94.5809 113.475 95.9859 113.068C97.4094 112.68 98.5648 112.07 99.4521 111.238C100.358 110.424 100.811 109.389 100.811 108.132Z" fill="white"/>
<path d="M63.5338 63.5149C63.5338 62.4611 63.9035 61.583 64.643 60.8805C65.4009 60.1781 66.2975 59.8268 67.3328 59.8268C68.368 59.8268 69.2554 60.1781 69.9948 60.8805C70.7343 61.583 71.104 62.4611 71.104 63.5149C71.104 64.5501 70.7343 65.419 69.9948 66.1214C69.2554 66.8239 68.368 67.1752 67.3328 67.1752C66.2975 67.1752 65.4009 66.8239 64.643 66.1214C63.9035 65.419 63.5338 64.5501 63.5338 63.5149ZM63.9775 76.8528H60.234C59.9752 76.8528 59.8088 76.8159 59.7348 76.7419C59.6794 76.6495 59.6516 76.4739 59.6516 76.2151V74.1353C59.6516 73.6547 59.8827 73.4144 60.3449 73.4144H70.0225C70.2444 73.4144 70.383 73.4513 70.4385 73.5253C70.5124 73.5992 70.5494 73.7564 70.5494 73.9967V98.1492C70.5494 98.3895 70.5864 98.5652 70.6603 98.6761C70.7528 98.7685 70.9099 98.8147 71.1317 98.8147H74.8752C75.134 98.8147 75.3097 98.8425 75.4021 98.8979C75.4945 98.9534 75.5408 99.1198 75.5408 99.3971V101.56C75.5408 101.837 75.513 102.022 75.4576 102.115C75.4021 102.207 75.2357 102.253 74.9584 102.253H60.4835C60.1693 102.253 59.9474 102.216 59.818 102.142C59.7071 102.068 59.6516 101.883 59.6516 101.588V99.6466C59.6516 99.2769 59.7163 99.0458 59.8457 98.9534C59.9752 98.861 60.2062 98.8147 60.539 98.8147H63.9775C64.2917 98.8147 64.4766 98.7685 64.5321 98.6761C64.606 98.5652 64.643 98.3618 64.643 98.066V77.5183C64.643 77.0747 64.4211 76.8528 63.9775 76.8528Z" fill="white"/>
<path d="M6.8215 64.319H2.71751C2.29232 64.319 2.01502 64.2728 1.88562 64.1804C1.7747 64.0694 1.71924 63.8199 1.71924 63.4317V61.6015C1.71924 61.1393 1.81167 60.8713 1.99654 60.7973C2.19989 60.7049 2.51416 60.6587 2.93935 60.6587H15.5841C16.0462 60.6587 16.3605 60.7142 16.5269 60.8251C16.6933 60.9175 16.8042 61.0746 16.8596 61.2965C16.9151 61.4998 16.9983 61.7586 17.1092 62.0729L26.8146 91.4941C27.018 92.0857 27.1566 92.594 27.2305 93.0192C27.323 93.4259 27.4524 93.6293 27.6188 93.6293C27.7667 93.6293 27.8776 93.5091 27.9515 93.2688C28.044 93.01 28.1826 92.6218 28.3675 92.1042L38.5165 61.6292C38.6459 61.241 38.7569 60.9822 38.8493 60.8528C38.9417 60.7234 39.256 60.6587 39.7921 60.6587H52.2427C52.6864 60.6587 52.9822 60.7142 53.1301 60.8251C53.2964 60.9175 53.3796 61.204 53.3796 61.6847V62.9325C53.3796 63.5426 53.3149 63.9308 53.1855 64.0972C53.0561 64.2451 52.6956 64.319 52.1041 64.319H48.5824C48.0648 64.319 47.7413 64.4392 47.6119 64.6795C47.4825 64.9198 47.427 65.2896 47.4455 65.7887L48.7211 97.4283C48.7395 97.8904 48.8042 98.2047 48.9152 98.3711C49.0446 98.519 49.3588 98.5929 49.858 98.5929H53.962C54.4796 98.5929 54.7754 98.6391 54.8493 98.7315C54.9417 98.8055 54.988 99.1105 54.988 99.6466V101.033C54.988 101.514 54.9325 101.837 54.8216 102.004C54.7291 102.17 54.4426 102.253 53.962 102.253H37.4351C36.9914 102.253 36.6586 102.189 36.4368 102.059C36.2335 101.93 36.1318 101.625 36.1318 101.144V99.8962C36.1318 99.3601 36.1872 99.0088 36.2982 98.8425C36.4091 98.6761 36.7418 98.5929 37.2964 98.5929H41.4281C41.9088 98.5929 42.2138 98.5097 42.3432 98.3433C42.4911 98.1585 42.5558 97.835 42.5373 97.3728L41.6777 71.3623C41.6407 70.7708 41.6315 70.0868 41.65 69.3104C41.687 68.5154 41.6962 67.8222 41.6777 67.2306C41.6777 66.6206 41.613 66.3155 41.4836 66.3155C41.2803 66.3155 41.0769 66.5651 40.8736 67.0642C40.6887 67.5634 40.5038 68.1549 40.319 68.8389C40.1341 69.5229 39.94 70.1515 39.7366 70.7246L29.3103 101.782C29.1809 102.152 29.033 102.42 28.8666 102.586C28.7002 102.752 28.3582 102.836 27.8406 102.836H26.0382C25.3542 102.836 24.9105 102.706 24.7071 102.447C24.5223 102.207 24.3559 101.847 24.208 101.366L13.3657 69.5322C13.2178 69.0885 13.0884 68.5617 12.9775 67.9516C12.8666 67.3231 12.7372 66.7685 12.5893 66.2878C12.4599 65.8072 12.275 65.5668 12.0347 65.5668C11.9238 65.5668 11.8406 65.7425 11.7851 66.0937C11.7297 66.445 11.6834 67.0827 11.6465 68.0071L10.4541 96.7627C10.4356 97.5022 10.528 97.9921 10.7314 98.2324C10.9347 98.4727 11.4339 98.5929 12.2288 98.5929H15.6395C16.1756 98.5929 16.5176 98.6576 16.6655 98.787C16.8319 98.9164 16.9151 99.2584 16.9151 99.813V101.089C16.9151 101.606 16.7949 101.93 16.5546 102.059C16.3328 102.189 15.9631 102.253 15.4454 102.253H1.24784C0.711729 102.253 0.369729 102.189 0.221837 102.059C0.0739458 101.93 0 101.606 0 101.089V99.7298C0 99.2307 0.0647026 98.9164 0.194108 98.787C0.323513 98.6576 0.637783 98.5929 1.13692 98.5929H5.01907C5.53669 98.5929 5.87869 98.482 6.04507 98.2601C6.22994 98.0198 6.33161 97.6778 6.3501 97.2341L7.87523 65.4282C7.89372 65.0215 7.82901 64.735 7.68112 64.5686C7.55172 64.4022 7.26518 64.319 6.8215 64.319Z" fill="white"/>
<path d="M235.835 3.05176e-05C236.796 3.05176e-05 237.661 0.18604 238.43 0.651108C239.102 1.11617 239.679 1.67427 240.063 2.32537C240.447 2.97646 240.639 3.81358 240.543 4.6507C240.543 5.48782 240.255 6.32493 239.871 7.16205C239.486 7.44109 239.198 7.34809 239.102 6.97604C239.006 6.0459 238.43 5.20878 237.373 4.55768C236.316 3.90659 234.586 3.53453 232.28 3.53453C230.839 3.53453 229.494 3.62754 228.341 3.90658C227.092 4.09261 225.939 4.55767 224.882 5.30178C223.825 5.95287 222.768 6.97603 221.711 8.27822C220.654 9.58041 219.501 11.3477 218.348 13.487C217.195 15.6263 215.946 18.3237 214.601 21.4861C213.255 24.6486 211.814 28.4621 210.277 32.9268C211.622 32.9268 212.967 32.8338 214.312 32.8338C215.657 32.8338 217.003 32.8338 218.348 32.8338C218.636 32.9268 218.732 33.0198 218.636 33.2058C218.54 33.3918 218.348 33.4848 217.964 33.5779C216.714 33.5779 215.465 33.6709 214.12 33.6709C212.775 33.6709 211.334 33.7639 209.989 33.8569C209.892 34.0429 209.796 34.322 209.7 34.601C209.604 34.8801 209.508 35.0661 209.412 35.3451C207.394 41.112 205.184 46.0417 202.782 50.0413C200.38 54.0408 197.978 57.3893 195.384 59.9007C192.789 62.412 190.195 64.2723 187.601 65.4815C185.007 66.5977 182.316 67.2487 179.722 67.2487C177.992 67.2487 176.647 66.8767 175.686 66.1326C174.725 65.3885 174.341 64.4584 174.341 63.2492C174.341 62.04 174.822 60.8308 175.878 59.8077C176.071 59.7147 176.167 59.6216 176.359 59.7146C176.455 59.8077 176.551 59.9007 176.551 60.0867C176.263 60.5518 176.167 61.0168 176.263 61.5749C176.359 62.133 176.551 62.5981 176.935 63.0631C177.32 63.5282 177.896 63.9003 178.761 64.1793C179.53 64.4584 180.587 64.6444 181.836 64.6444C184.238 64.6444 186.448 64.3653 188.369 63.7142C190.291 63.0631 192.117 61.7609 193.846 59.7146C195.576 57.6684 197.401 54.6919 199.227 50.8784C201.053 47.0648 203.07 41.8561 205.376 35.4381L205.857 34.229C204.896 34.322 203.935 34.415 202.974 34.508C202.11 34.601 201.245 34.7871 200.38 34.8801C200.092 34.8801 200.092 34.694 200.188 34.508C200.38 34.322 200.572 34.136 200.957 33.9499C201.341 33.7639 201.725 33.5779 202.206 33.3919C202.686 33.2058 203.166 33.1128 203.551 33.1128C203.935 33.1128 204.416 33.0198 204.896 33.0198C205.376 33.0198 205.761 32.9268 206.241 32.9268C208.451 27.16 210.661 22.2302 213.063 18.1377C215.465 13.952 217.964 10.5105 220.462 7.81315C222.96 5.11576 225.554 3.16249 228.149 1.8603C230.647 0.651125 233.241 3.05176e-05 235.835 3.05176e-05Z" fill="white"/>
<path d="M225.65 32.6478C227.476 32.6478 228.821 33.1129 229.782 34.136C230.647 35.0662 231.127 36.2754 231.127 37.5776C231.127 39.3448 230.743 41.019 229.878 42.6003C229.013 44.1815 228.052 45.4837 226.899 46.6929C225.746 47.902 224.401 48.8322 223.056 49.4833C221.711 50.1344 220.462 50.5064 219.309 50.5064C217.483 50.5064 216.138 50.0414 215.273 49.1112C214.312 48.1811 213.928 46.9719 213.928 45.4837C213.928 44.1815 214.216 42.6933 214.889 41.2981C215.561 39.8099 216.426 38.4147 217.483 37.2055C218.54 35.9963 219.789 34.8801 221.23 34.043C222.672 33.2059 224.113 32.6478 225.65 32.6478ZM221.326 48.2741C222.96 48.2741 224.305 47.53 225.458 46.0418C226.611 44.5536 227.188 42.5073 227.188 39.8099C227.188 38.4147 226.899 37.2985 226.227 36.3684C225.554 35.4382 224.689 34.9732 223.44 34.9732C221.711 34.9732 220.366 35.7173 219.309 37.1125C218.252 38.5077 217.771 40.647 217.771 43.4374C217.771 45.0186 218.06 46.2278 218.732 47.0649C219.405 47.809 220.269 48.2741 221.326 48.2741Z" fill="white"/>
<path d="M242.657 34.6941C242.657 35.3452 242.561 36.1823 242.465 37.0194C242.273 37.8566 242.081 38.7867 241.792 39.7168C242.849 37.4845 244.002 35.8103 245.251 34.5081C246.501 33.2989 247.846 32.6478 249.383 32.6478C250.152 32.6478 250.824 32.8338 251.209 33.1129C251.593 33.3919 251.881 33.857 251.881 34.3221C251.881 34.7871 251.689 35.3452 251.305 36.0893C250.92 36.8334 250.536 37.2985 250.344 37.5775C250.248 37.6705 250.152 37.5775 250.056 37.5775C249.96 37.4845 249.863 37.3915 249.863 37.2985C249.863 37.0194 249.671 36.7404 249.383 36.4614C249.095 36.2753 248.614 36.0893 248.038 36.0893C246.212 36.0893 244.483 37.2055 243.042 39.3448C241.504 41.5771 240.159 44.6466 238.91 48.8322C238.814 49.0182 238.718 49.2972 238.333 49.3902C238.045 49.5763 237.661 49.6693 237.276 49.7623C236.892 49.8553 236.508 49.9483 236.027 50.0413C235.643 50.1343 235.259 50.1343 234.874 50.1343C234.298 50.1343 234.106 49.8553 234.394 49.2972C234.874 48.3671 235.355 47.2509 235.739 46.1348C236.219 45.0186 236.604 43.9024 236.988 42.6933C237.372 41.5771 237.661 40.4609 237.949 39.3448C238.237 38.2286 238.429 37.2985 238.622 36.3683C238.718 35.7172 238.814 35.1592 238.718 34.7871C238.718 34.4151 238.429 34.229 238.045 34.229C237.565 34.229 236.988 34.4151 236.412 34.7871C235.835 35.1592 235.355 35.7173 234.874 36.2754C234.682 36.3684 234.49 36.4614 234.298 36.2754C234.106 36.1823 234.106 35.9963 234.202 35.8103C234.49 35.4382 234.874 35.0662 235.355 34.6941C235.835 34.3221 236.316 33.95 236.892 33.5779C237.469 33.2059 238.045 32.9268 238.622 32.7408C239.198 32.5548 239.871 32.3688 240.447 32.3688C241.312 32.3688 241.888 32.5548 242.177 32.9269C242.465 33.4849 242.657 34.043 242.657 34.6941Z" fill="white"/>
<path d="M253.354 120.29C252.823 120.29 252.327 120.188 251.868 119.985C251.415 119.781 251.054 119.532 250.785 119.237L251.188 117.573C251.398 117.953 251.7 118.285 252.094 118.567C252.488 118.849 252.924 118.99 253.403 118.99C253.81 118.99 254.142 118.869 254.398 118.626C254.654 118.377 254.782 118.075 254.782 117.72C254.782 117.445 254.716 117.218 254.585 117.041C254.46 116.864 254.312 116.723 254.142 116.618C253.971 116.506 253.83 116.424 253.718 116.372L252.655 115.84C252.419 115.715 252.17 115.561 251.907 115.377C251.644 115.193 251.421 114.954 251.237 114.659C251.054 114.357 250.962 113.976 250.962 113.516C250.962 113.044 251.07 112.627 251.287 112.266C251.503 111.905 251.809 111.623 252.202 111.419C252.596 111.216 253.052 111.114 253.571 111.114C254.07 111.114 254.513 111.2 254.9 111.37C255.287 111.534 255.596 111.708 255.825 111.892L255.432 113.536C255.222 113.228 254.943 112.962 254.595 112.739C254.253 112.509 253.889 112.394 253.502 112.394C253.147 112.394 252.869 112.496 252.665 112.699C252.462 112.896 252.36 113.139 252.36 113.428C252.36 113.631 252.406 113.805 252.498 113.95C252.596 114.094 252.714 114.216 252.852 114.314C252.996 114.406 253.138 114.488 253.275 114.56L254.358 115.102C254.509 115.174 254.687 115.276 254.89 115.407C255.1 115.531 255.304 115.692 255.5 115.889C255.697 116.086 255.858 116.326 255.983 116.608C256.114 116.89 256.18 117.228 256.18 117.622C256.18 118.134 256.058 118.593 255.816 119C255.579 119.401 255.251 119.716 254.831 119.945C254.411 120.175 253.919 120.29 253.354 120.29Z" fill="white"/>
<path d="M242.16 112.571V111.272H248.166V112.571H245.902V120.132H244.425V112.571H242.16Z" fill="white"/>
<path d="M233.089 120.132V111.272H234.507V114.137H237.362V111.272H238.78V120.132H237.362V115.436H234.507V120.132H233.089Z" fill="white"/>
<path d="M226.269 120.31C225.613 120.31 224.999 120.195 224.428 119.965C223.857 119.729 223.355 119.404 222.922 118.99C222.495 118.57 222.161 118.081 221.918 117.523C221.681 116.966 221.563 116.362 221.563 115.712C221.563 115.062 221.681 114.458 221.918 113.9C222.161 113.343 222.495 112.854 222.922 112.433C223.355 112.013 223.854 111.685 224.418 111.449C224.989 111.213 225.603 111.095 226.259 111.095C226.876 111.095 227.454 111.2 227.992 111.41C228.53 111.62 229.006 111.915 229.42 112.296L229.006 113.989C228.731 113.543 228.357 113.178 227.884 112.896C227.411 112.607 226.87 112.463 226.259 112.463C225.656 112.463 225.114 112.607 224.635 112.896C224.156 113.185 223.775 113.576 223.493 114.068C223.211 114.553 223.07 115.102 223.07 115.712C223.07 116.322 223.207 116.874 223.483 117.366C223.765 117.852 224.146 118.239 224.625 118.528C225.111 118.816 225.652 118.961 226.25 118.961C226.565 118.961 226.863 118.925 227.146 118.853C227.428 118.78 227.684 118.679 227.913 118.547V116.529H225.797V115.289H229.262V119.394C228.862 119.689 228.402 119.916 227.884 120.073C227.372 120.231 226.834 120.31 226.269 120.31Z" fill="white"/>
<path d="M216.506 120.132V111.272H217.982V120.132H216.506Z" fill="white"/>
<path d="M206.823 120.132V111.272H209.294C209.891 111.272 210.403 111.393 210.83 111.636C211.263 111.872 211.594 112.187 211.824 112.581C212.054 112.975 212.169 113.408 212.169 113.881C212.169 114.353 212.05 114.78 211.814 115.161C211.578 115.541 211.246 115.837 210.82 116.047L213.478 120.132H211.854L209.461 116.411H208.24V120.132H206.823ZM208.24 115.2H209.274C209.622 115.2 209.904 115.134 210.121 115.003C210.344 114.872 210.508 114.704 210.613 114.501C210.725 114.298 210.78 114.091 210.78 113.881C210.78 113.5 210.643 113.188 210.367 112.945C210.091 112.696 209.727 112.571 209.274 112.571H208.24V115.2Z" fill="white"/>
<path d="M192.407 120.132V111.272H194.878C195.475 111.272 195.987 111.393 196.414 111.636C196.847 111.872 197.178 112.187 197.408 112.581C197.638 112.975 197.753 113.408 197.753 113.881C197.753 114.353 197.635 114.78 197.398 115.161C197.162 115.541 196.831 115.837 196.404 116.047L199.062 120.132H197.438L195.045 116.411H193.825V120.132H192.407ZM193.825 115.2H194.858C195.206 115.2 195.488 115.134 195.705 115.003C195.928 114.872 196.092 114.704 196.197 114.501C196.309 114.298 196.365 114.091 196.365 113.881C196.365 113.5 196.227 113.188 195.951 112.945C195.675 112.696 195.311 112.571 194.858 112.571H193.825V115.2Z" fill="white"/>
<path d="M184.22 120.31C183.577 120.31 182.973 120.192 182.409 119.955C181.844 119.712 181.349 119.381 180.922 118.961C180.502 118.541 180.171 118.052 179.928 117.494C179.685 116.936 179.564 116.339 179.564 115.702C179.564 115.065 179.685 114.468 179.928 113.91C180.171 113.352 180.502 112.863 180.922 112.443C181.349 112.023 181.844 111.695 182.409 111.459C182.973 111.216 183.577 111.095 184.22 111.095C184.87 111.095 185.474 111.216 186.032 111.459C186.596 111.695 187.092 112.023 187.519 112.443C187.945 112.863 188.277 113.352 188.513 113.91C188.756 114.468 188.877 115.065 188.877 115.702C188.877 116.339 188.756 116.936 188.513 117.494C188.277 118.052 187.945 118.541 187.519 118.961C187.092 119.381 186.596 119.712 186.032 119.955C185.474 120.192 184.87 120.31 184.22 120.31ZM184.22 118.921C184.811 118.921 185.343 118.777 185.815 118.488C186.294 118.2 186.672 117.812 186.947 117.327C187.23 116.834 187.371 116.293 187.371 115.702C187.371 115.105 187.23 114.563 186.947 114.078C186.672 113.592 186.294 113.205 185.815 112.916C185.343 112.627 184.811 112.483 184.22 112.483C183.63 112.483 183.095 112.627 182.616 112.916C182.143 113.205 181.766 113.592 181.483 114.078C181.208 114.563 181.07 115.105 181.07 115.702C181.07 116.293 181.208 116.834 181.483 117.327C181.766 117.812 182.143 118.2 182.616 118.488C183.095 118.777 183.63 118.921 184.22 118.921Z" fill="white"/>
<path d="M172.34 120.132V111.272H176.889V112.512H173.758V114.166H176.594V115.407H173.758V120.132H172.34Z" fill="white"/>
<path d="M156.346 120.132V111.272H159.3C160.055 111.272 160.724 111.396 161.308 111.646C161.899 111.889 162.398 112.22 162.805 112.64C163.212 113.054 163.52 113.526 163.73 114.058C163.94 114.59 164.045 115.138 164.045 115.702C164.045 116.267 163.94 116.815 163.73 117.346C163.52 117.878 163.212 118.354 162.805 118.774C162.398 119.187 161.899 119.519 161.308 119.768C160.724 120.011 160.055 120.132 159.3 120.132H156.346ZM157.764 118.833H159.162C159.753 118.833 160.258 118.744 160.678 118.567C161.105 118.383 161.456 118.14 161.732 117.839C162.007 117.537 162.211 117.202 162.342 116.834C162.473 116.46 162.539 116.083 162.539 115.702C162.539 115.321 162.473 114.947 162.342 114.58C162.211 114.206 162.007 113.868 161.732 113.566C161.456 113.264 161.105 113.024 160.678 112.847C160.258 112.663 159.753 112.571 159.162 112.571H157.764V118.833Z" fill="white"/>
<path d="M148.301 120.132V111.272H152.849V112.542H149.719V114.166H152.16V115.407H149.719V118.833H152.849V120.132H148.301Z" fill="white"/>
<path d="M138.913 112.571V111.272H144.919V112.571H142.654V120.132H141.178V112.571H138.913Z" fill="white"/>
<path d="M133.974 120.132V111.272H135.45V120.132H133.974Z" fill="white"/>
<path d="M129.856 120.428L124.097 114.452V120.132H122.738V110.976L128.498 116.943V111.272H129.856V120.428Z" fill="white"/>
<path d="M115.863 120.3C115.272 120.3 114.747 120.175 114.288 119.926C113.828 119.67 113.467 119.315 113.205 118.862C112.942 118.403 112.811 117.865 112.811 117.248V111.272H114.288V117.179C114.288 117.711 114.438 118.137 114.74 118.459C115.042 118.774 115.426 118.931 115.892 118.931C116.345 118.931 116.723 118.777 117.024 118.469C117.333 118.154 117.487 117.74 117.487 117.228V111.272H118.915V117.208C118.915 117.832 118.784 118.377 118.521 118.843C118.265 119.309 117.907 119.67 117.448 119.926C116.995 120.175 116.467 120.3 115.863 120.3Z" fill="white"/>
</svg>
